<?xml version="1.0" encoding="UTF-8" standalone="no"?>
<svg width="24px" height="24px" viewBox="0 0 24 24" version="1.1" xmlns="http://www.w3.org/2000/svg" xmlns:xlink="http://www.w3.org/1999/xlink">
    <!-- Generator: Sketch 3.8.3 (29802) - http://www.bohemiancoding.com/sketch -->
    <title>Group Copy</title>
    <desc>Created with Sketch.</desc>
    <defs></defs>
    <g id="website" stroke="none" stroke-width="1" fill="none" fill-rule="evenodd">
        <g id="changelog-bofangqi" transform="translate(-240.000000, -1254.000000)">
            <g id="Group-Copy" transform="translate(240.000000, 1254.000000)">
                <rect id="Rectangle-54" fill="#1AADF9" x="0" y="0" width="24" height="24" rx="4.57142857"></rect>
                <circle id="Oval" fill="#FFFFFF" cx="12" cy="12" r="1.71428571"></circle>
                <path d="M12,6.85714286 C13.1365714,6.85714286 14.2131429,7.22857143 15.1028571,7.90457143 L13.0434286,9.84342857 L18.2817143,10.4051429 L18.0354286,5.14285714 L15.9468571,7.10971429 C14.8325714,6.20685714 13.4542857,5.71428571 12,5.71428571 C8.53428571,5.71428571 5.71428571,8.53428571 5.71428571,12 L6.85714286,12 C6.85714286,9.164 9.164,6.85714286 12,6.85714286 L12,6.85714286 Z" id="Shape" fill="#FFFFFF"></path>
                <path d="M12,17.1428571 C10.8634286,17.1428571 9.78685714,16.7714286 8.89714286,16.0954286 L10.9565714,14.1565714 L5.71828571,13.5948571 L5.96457143,18.8571429 L8.05314286,16.8902857 C9.16742857,17.7931429 10.5457143,18.2857143 12,18.2857143 C15.4657143,18.2857143 18.2857143,15.4657143 18.2857143,12 L17.1428571,12 C17.1428571,14.836 14.836,17.1428571 12,17.1428571 L12,17.1428571 Z" id="Shape" fill="#FFFFFF"></path>
            </g>
        </g>
    </g>
</svg>