<?xml version="1.0" encoding="UTF-8" standalone="no"?>
<svg width="203px" height="184px" viewBox="0 0 203 184" version="1.1" xmlns="http://www.w3.org/2000/svg" xmlns:xlink="http://www.w3.org/1999/xlink">
    <!-- Generator: Sketch 3.8.3 (29802) - http://www.bohemiancoding.com/sketch -->
    <title>Group 19</title>
    <desc>Created with Sketch.</desc>
    <defs>
        <rect id="path-1" x="0" y="0" width="105" height="48" rx="2.88288288"></rect>
        <filter x="-50%" y="-50%" width="200%" height="200%" filterUnits="objectBoundingBox" id="filter-2">
            <feOffset dx="0" dy="4" in="SourceAlpha" result="shadowOffsetOuter1"></feOffset>
            <feGaussianBlur stdDeviation="4" in="shadowOffsetOuter1" result="shadowBlurOuter1"></feGaussianBlur>
            <feComposite in="shadowBlurOuter1" in2="SourceAlpha" operator="out" result="shadowBlurOuter1"></feComposite>
            <feColorMatrix values="0 0 0 0 0   0 0 0 0 0   0 0 0 0 0  0 0 0 0.06 0" type="matrix" in="shadowBlurOuter1"></feColorMatrix>
        </filter>
        <mask id="mask-3" maskContentUnits="userSpaceOnUse" maskUnits="objectBoundingBox" x="0" y="0" width="105" height="48" fill="white">
            <use xlink:href="#path-1"></use>
        </mask>
        <rect id="path-4" x="0" y="0" width="125" height="48" rx="2.88288288"></rect>
        <filter x="-50%" y="-50%" width="200%" height="200%" filterUnits="objectBoundingBox" id="filter-5">
            <feOffset dx="0" dy="4" in="SourceAlpha" result="shadowOffsetOuter1"></feOffset>
            <feGaussianBlur stdDeviation="4" in="shadowOffsetOuter1" result="shadowBlurOuter1"></feGaussianBlur>
            <feComposite in="shadowBlurOuter1" in2="SourceAlpha" operator="out" result="shadowBlurOuter1"></feComposite>
            <feColorMatrix values="0 0 0 0 0   0 0 0 0 0   0 0 0 0 0  0 0 0 0.06 0" type="matrix" in="shadowBlurOuter1"></feColorMatrix>
        </filter>
        <mask id="mask-6" maskContentUnits="userSpaceOnUse" maskUnits="objectBoundingBox" x="0" y="0" width="125" height="48" fill="white">
            <use xlink:href="#path-4"></use>
        </mask>
        <rect id="path-7" x="6" y="110" width="58" height="58" rx="29"></rect>
        <filter x="-50%" y="-50%" width="200%" height="200%" filterUnits="objectBoundingBox" id="filter-8">
            <feOffset dx="0" dy="3" in="SourceAlpha" result="shadowOffsetOuter1"></feOffset>
            <feGaussianBlur stdDeviation="4" in="shadowOffsetOuter1" result="shadowBlurOuter1"></feGaussianBlur>
            <feColorMatrix values="0 0 0 0 0.176320262   0 0 0 0 0.307289654   0 0 0 0 0.398809524  0 0 0 0.114724864 0" type="matrix" in="shadowBlurOuter1"></feColorMatrix>
        </filter>
        <rect id="path-9" x="0" y="0" width="50" height="50" rx="25"></rect>
        <filter x="-50%" y="-50%" width="200%" height="200%" filterUnits="objectBoundingBox" id="filter-10">
            <feOffset dx="0" dy="3" in="SourceAlpha" result="shadowOffsetOuter1"></feOffset>
            <feGaussianBlur stdDeviation="4" in="shadowOffsetOuter1" result="shadowBlurOuter1"></feGaussianBlur>
            <feColorMatrix values="0 0 0 0 0.176320262   0 0 0 0 0.307289654   0 0 0 0 0.398809524  0 0 0 0.114724864 0" type="matrix" in="shadowBlurOuter1"></feColorMatrix>
        </filter>
    </defs>
    <g id="website" stroke="none" stroke-width="1" fill="none" fill-rule="evenodd">
        <g id="直播推流-SDK" transform="translate(-649.000000, -1346.000000)">
            <g id="Group-19" transform="translate(657.000000, 1351.000000)">
                <g id="Group-9" transform="translate(82.000000, 78.000000)">
                    <g id="Rectangle-16-Copy">
                        <use fill="black" fill-opacity="1" filter="url(#filter-2)" xlink:href="#path-1"></use>
                        <use stroke-opacity="0.343410326" stroke="#979797" mask="url(#mask-3)" stroke-width="1.44144144" fill="#FFFFFF" fill-rule="evenodd" xlink:href="#path-1"></use>
                    </g>
                    <g id="media-24px-outline-1_audio-91" transform="translate(16.000000, 17.000000)" stroke="#5ECDFF">
                        <path d="M6.33333333,9.13043478 L6.33333333,9.13043478 C4.46666667,9.13043478 3,7.69565217 3,5.86956522 L3,3.26086957 C3,1.43478261 4.46666667,0 6.33333333,0 L6.33333333,0 C8.2,0 9.66666667,1.43478261 9.66666667,3.26086957 L9.66666667,5.86956522 C9.66666667,7.69565217 8.2,9.13043478 6.33333333,9.13043478 L6.33333333,9.13043478 Z" id="Shape"></path>
                        <path d="M12,6 C12,9.26086957 9.33333333,11.8695652 6,11.8695652 L6,11.8695652 C2.66666667,11.8695652 0,9.26086957 0,6" id="Shape" stroke-linecap="round" stroke-linejoin="round"></path>
                        <path d="M3,15 L9.66666667,15" id="Shape" stroke-linecap="round" stroke-linejoin="round"></path>
                        <path d="M6,12 L6,14.6086957" id="Shape" stroke-linecap="round" stroke-linejoin="round"></path>
                    </g>
                    <text id="ACC" font-family=".AppleSystemUIFont" font-size="18" font-weight="normal" letter-spacing="1.26999998" fill="#000000">
                        <tspan x="43" y="34">ACC</tspan>
                    </text>
                </g>
                <g id="Group-8" transform="translate(0.000000, 40.000000)">
                    <g id="Rectangle-16">
                        <use fill="black" fill-opacity="1" filter="url(#filter-5)" xlink:href="#path-4"></use>
                        <use stroke="#D9DDDF" mask="url(#mask-6)" stroke-width="2" fill="#FFFFFF" fill-rule="evenodd" xlink:href="#path-4"></use>
                    </g>
                    <g id="media-24px-outline-1_video-64" transform="translate(19.000000, 20.000000)" stroke="#5ECDFF">
                        <path d="M14,6.39785571 C14,7.12489993 13.4537853,7.477805 12.7945359,7.19238651 L10.7509187,6.30761349 C10.0851592,6.01937652 9.54545455,5.18931362 9.54545455,4.46986852 L9.54545455,4.53013148 C9.54545455,3.80340993 10.0916693,2.977805 10.7509187,2.69238651 L12.7945359,1.80761349 C13.4602953,1.51937652 14,1.878976 14,2.60214429 L14,6.39785571 Z" id="Shape"></path>
                        <rect id="Rectangle-path" x="0" y="0" width="9.54545455" height="9" rx="1.316"></rect>
                    </g>
                    <text id="H.264" font-family=".AppleSystemUIFont" font-size="18" font-weight="normal" letter-spacing="1.26999998" fill="#000000">
                        <tspan x="48" y="33">H.264</tspan>
                    </text>
                </g>
                <g id="Rectangle-126-Copy">
                    <use fill="black" fill-opacity="1" filter="url(#filter-8)" xlink:href="#path-7"></use>
                    <use fill="#40B5F4" fill-rule="evenodd" xlink:href="#path-7"></use>
                </g>
                <g id="Group-16" transform="translate(137.000000, 0.000000)">
                    <g id="Rectangle-126">
                        <use fill="black" fill-opacity="1" filter="url(#filter-10)" xlink:href="#path-9"></use>
                        <use fill="#8A40F4" fill-rule="evenodd" xlink:href="#path-9"></use>
                    </g>
                    <g id="Group-14" transform="translate(16.000000, 16.000000)" stroke="#FFFFFF">
                        <rect id="Rectangle-path" x="0" y="0" width="7.36363636" height="7.36363636" rx="0.818181818"></rect>
                        <rect id="Rectangle-path" transform="translate(14.318182, 3.681818) rotate(180.000000) translate(-14.318182, -3.681818) " x="10.6363636" y="-6.79392542e-10" width="7.36363636" height="7.36363636" rx="0.818181818"></rect>
                        <rect id="Rectangle-path" x="0" y="10.6363636" width="7.36363636" height="7.36363636" rx="0.818181818"></rect>
                        <rect id="Rectangle-path" transform="translate(14.318182, 14.318182) rotate(180.000000) translate(-14.318182, -14.318182) " x="10.6363636" y="10.6363636" width="7.36363636" height="7.36363636" rx="0.818181818"></rect>
                    </g>
                </g>
                <g id="Group-15" transform="translate(26.000000, 128.000000)" stroke="#FFFFFF">
                    <path d="M0,3 L0,19 C0,20.7 4,22 9,22 C14,22 18,20.7 18,19 L18,3" id="Shape"></path>
                    <ellipse id="Oval" cx="9" cy="3" rx="9" ry="3"></ellipse>
                    <path d="M18,11 C18,12.7 14,14 9,14 C4,14 0,12.7 0,11" id="Shape"></path>
                </g>
            </g>
        </g>
    </g>
</svg>