<?xml version="1.0" encoding="UTF-8" standalone="no"?>
<svg width="182px" height="172px" viewBox="0 0 182 172" version="1.1" xmlns="http://www.w3.org/2000/svg" xmlns:xlink="http://www.w3.org/1999/xlink">
    <!-- Generator: Sketch 3.8.3 (29802) - http://www.bohemiancoding.com/sketch -->
    <title>Group 21</title>
    <desc>Created with Sketch.</desc>
    <defs>
        <linearGradient x1="101.999998%" y1="0%" x2="101.999998%" y2="100.999999%" id="linearGradient-1">
            <stop stop-color="#FF60A6" offset="0%"></stop>
            <stop stop-color="#D51879" offset="100%"></stop>
        </linearGradient>
        <rect id="path-2" x="39" y="38" width="98.4473684" height="101.5" rx="28"></rect>
        <filter x="-50%" y="-50%" width="200%" height="200%" filterUnits="objectBoundingBox" id="filter-3">
            <feOffset dx="0" dy="4" in="SourceAlpha" result="shadowOffsetOuter1"></feOffset>
            <feGaussianBlur stdDeviation="6" in="shadowOffsetOuter1" result="shadowBlurOuter1"></feGaussianBlur>
            <feColorMatrix values="0 0 0 0 0.659996811   0 0 0 0 0.224386937   0 0 0 0 0.544361921  0 0 0 0.128736413 0" type="matrix" in="shadowBlurOuter1"></feColorMatrix>
        </filter>
        <linearGradient x1="50%" y1="0%" x2="50%" y2="100%" id="linearGradient-4">
            <stop stop-color="#FFFFFF" offset="0%"></stop>
            <stop stop-color="#FFFFFF" stop-opacity="0.294865263" offset="100%"></stop>
        </linearGradient>
        <path d="M7,41 L7,13 C7,5.8199997 12.8199997,0 20,0 C27.1800003,0 33,5.8199997 33,13 L33,41 L7,41 L7,41 Z" id="path-5"></path>
        <filter x="-50%" y="-50%" width="200%" height="200%" filterUnits="objectBoundingBox" id="filter-6">
            <feOffset dx="0" dy="2" in="SourceAlpha" result="shadowOffsetOuter1"></feOffset>
            <feGaussianBlur stdDeviation="1" in="shadowOffsetOuter1" result="shadowBlurOuter1"></feGaussianBlur>
            <feColorMatrix values="0 0 0 0 0   0 0 0 0 0   0 0 0 0 0  0 0 0 0.3 0" type="matrix" in="shadowBlurOuter1"></feColorMatrix>
        </filter>
        <linearGradient x1="50%" y1="0%" x2="50%" y2="100%" id="linearGradient-7">
            <stop stop-color="#FFFFFF" stop-opacity="0.482053895" offset="0%"></stop>
            <stop stop-color="#FFFFFF" stop-opacity="0.801970109" offset="100%"></stop>
        </linearGradient>
        <rect id="path-8" x="14" y="23" width="12" height="15"></rect>
        <filter x="-50%" y="-50%" width="200%" height="200%" filterUnits="objectBoundingBox" id="filter-9">
            <feOffset dx="0" dy="2" in="SourceAlpha" result="shadowOffsetOuter1"></feOffset>
            <feGaussianBlur stdDeviation="1" in="shadowOffsetOuter1" result="shadowBlurOuter1"></feGaussianBlur>
            <feColorMatrix values="0 0 0 0 0   0 0 0 0 0   0 0 0 0 0  0 0 0 0.3 0" type="matrix" in="shadowBlurOuter1"></feColorMatrix>
        </filter>
        <linearGradient x1="50%" y1="0%" x2="50%" y2="100%" id="linearGradient-10">
            <stop stop-color="#FFFFFF" offset="0%"></stop>
            <stop stop-color="#FFFFFF" stop-opacity="0.801970109" offset="100%"></stop>
        </linearGradient>
        <path d="M36.6829987,38.3419991 L26,33 C24.3120003,34.25 22.2460003,35 20,35 C17.7539997,35 15.6879997,34.25 14.0179996,33 L3.3169999,38.3419991 C1.2839999,39.3580017 0,41.4360008 0,43.7080002 L0,45.9944039 C0,46.549778 0.4492188,47 1.0087748,47 L38.9912196,47 C39.5483589,47 40,46.5560265 40,45.9944038 L40,43.7080001 C40,41.4360008 38.7159996,39.3580017 36.6829987,38.3419991 L36.6829987,38.3419991 Z" id="path-11"></path>
        <filter x="-50%" y="-50%" width="200%" height="200%" filterUnits="objectBoundingBox" id="filter-12">
            <feOffset dx="0" dy="2" in="SourceAlpha" result="shadowOffsetOuter1"></feOffset>
            <feGaussianBlur stdDeviation="1" in="shadowOffsetOuter1" result="shadowBlurOuter1"></feGaussianBlur>
            <feColorMatrix values="0 0 0 0 0   0 0 0 0 0   0 0 0 0 0  0 0 0 0.3 0" type="matrix" in="shadowBlurOuter1"></feColorMatrix>
        </filter>
        <path d="M9,16 L9,18 C9,24.0650005 13.9350014,29 20,29 C26.0649986,29 31,24.0650005 31,18 L31,16 C31,14.3431492 29.6568527,13 28,13 C24.5170708,13 21.4962292,11.0215607 20,8.1272011 C18.5037708,11.0215607 15.4829292,13 12,13 C10.3431501,13 9,14.3431492 9,16 L9,16 Z" id="path-13"></path>
        <filter x="-50%" y="-50%" width="200%" height="200%" filterUnits="objectBoundingBox" id="filter-14">
            <feOffset dx="0" dy="2" in="SourceAlpha" result="shadowOffsetOuter1"></feOffset>
            <feGaussianBlur stdDeviation="1" in="shadowOffsetOuter1" result="shadowBlurOuter1"></feGaussianBlur>
            <feColorMatrix values="0 0 0 0 0   0 0 0 0 0   0 0 0 0 0  0 0 0 0.3 0" type="matrix" in="shadowBlurOuter1"></feColorMatrix>
        </filter>
        <path d="M11.5362549,34.2388916 L13.4830322,38.7365723 C13.7390747,39.3623047 14.5293579,39.558899 15.048706,39.1260376 L20,35 C17.7540283,35 15.6879883,34.25 14.0180054,33 L11.5362549,34.2388916 L11.5362549,34.2388916 Z" id="path-15"></path>
        <filter x="-50%" y="-50%" width="200%" height="200%" filterUnits="objectBoundingBox" id="filter-16">
            <feOffset dx="0" dy="2" in="SourceAlpha" result="shadowOffsetOuter1"></feOffset>
            <feGaussianBlur stdDeviation="1" in="shadowOffsetOuter1" result="shadowBlurOuter1"></feGaussianBlur>
            <feColorMatrix values="0 0 0 0 0   0 0 0 0 0   0 0 0 0 0  0 0 0 0.3 0" type="matrix" in="shadowBlurOuter1"></feColorMatrix>
        </filter>
        <path d="M26,33 C24.3120117,34.25 22.2460327,35 20,35 L24.951355,39.1260986 C25.4707031,39.5588989 26.2609863,39.3623047 26.5170288,38.7366333 L28.4662476,34.2332153 L26,33 L26,33 Z" id="path-17"></path>
        <filter x="-50%" y="-50%" width="200%" height="200%" filterUnits="objectBoundingBox" id="filter-18">
            <feOffset dx="0" dy="2" in="SourceAlpha" result="shadowOffsetOuter1"></feOffset>
            <feGaussianBlur stdDeviation="1" in="shadowOffsetOuter1" result="shadowBlurOuter1"></feGaussianBlur>
            <feColorMatrix values="0 0 0 0 0   0 0 0 0 0   0 0 0 0 0  0 0 0 0.3 0" type="matrix" in="shadowBlurOuter1"></feColorMatrix>
        </filter>
        <path d="M12,15.6521739 C7.68469565,15.6521739 4.17391304,12.1413913 4.17391304,7.82608696 C4.17391304,3.51078261 7.68469565,0 12,0 C16.3153043,0 19.826087,3.51078261 19.826087,7.82608696 C19.826087,12.1413913 16.3153043,15.6521739 12,15.6521739 L12,15.6521739 Z" id="path-19"></path>
        <filter x="-50%" y="-50%" width="200%" height="200%" filterUnits="objectBoundingBox" id="filter-20">
            <feOffset dx="0" dy="1" in="SourceAlpha" result="shadowOffsetOuter1"></feOffset>
            <feGaussianBlur stdDeviation="1" in="shadowOffsetOuter1" result="shadowBlurOuter1"></feGaussianBlur>
            <feComposite in="shadowBlurOuter1" in2="SourceAlpha" operator="out" result="shadowBlurOuter1"></feComposite>
            <feColorMatrix values="0 0 0 0 0   0 0 0 0 0   0 0 0 0 0  0 0 0 0.08 0" type="matrix" in="shadowBlurOuter1"></feColorMatrix>
        </filter>
        <path d="M7.82608696,24 C3.51078261,24 0,20.4892174 0,16.173913 C0,11.8586087 3.51078261,8.34782609 7.82608696,8.34782609 C12.1413913,8.34782609 15.6521739,11.8586087 15.6521739,16.173913 C15.6521739,20.4892174 12.1413913,24 7.82608696,24 L7.82608696,24 Z" id="path-21"></path>
        <filter x="-50%" y="-50%" width="200%" height="200%" filterUnits="objectBoundingBox" id="filter-22">
            <feOffset dx="0" dy="1" in="SourceAlpha" result="shadowOffsetOuter1"></feOffset>
            <feGaussianBlur stdDeviation="1" in="shadowOffsetOuter1" result="shadowBlurOuter1"></feGaussianBlur>
            <feComposite in="shadowBlurOuter1" in2="SourceAlpha" operator="out" result="shadowBlurOuter1"></feComposite>
            <feColorMatrix values="0 0 0 0 0   0 0 0 0 0   0 0 0 0 0  0 0 0 0.08 0" type="matrix" in="shadowBlurOuter1"></feColorMatrix>
        </filter>
        <path d="M16.173913,24 C11.8586087,24 8.34782609,20.4892174 8.34782609,16.173913 C8.34782609,11.8586087 11.8586087,8.34782609 16.173913,8.34782609 C20.4892174,8.34782609 24,11.8586087 24,16.173913 C24,20.4892174 20.4892174,24 16.173913,24 L16.173913,24 Z" id="path-23"></path>
        <filter x="-50%" y="-50%" width="200%" height="200%" filterUnits="objectBoundingBox" id="filter-24">
            <feOffset dx="0" dy="1" in="SourceAlpha" result="shadowOffsetOuter1"></feOffset>
            <feGaussianBlur stdDeviation="1" in="shadowOffsetOuter1" result="shadowBlurOuter1"></feGaussianBlur>
            <feComposite in="shadowBlurOuter1" in2="SourceAlpha" operator="out" result="shadowBlurOuter1"></feComposite>
            <feColorMatrix values="0 0 0 0 0   0 0 0 0 0   0 0 0 0 0  0 0 0 0.08 0" type="matrix" in="shadowBlurOuter1"></feColorMatrix>
        </filter>
    </defs>
    <g id="website" stroke="none" stroke-width="1" fill="none" fill-rule="evenodd">
        <g id="直播推流-SDK" transform="translate(-691.000000, -2416.000000)">
            <g id="Group-21" transform="translate(691.000000, 2411.000000)">
                <g id="Rectangle-295">
                    <use fill="black" fill-opacity="1" filter="url(#filter-3)" xlink:href="#path-2"></use>
                    <use fill="url(#linearGradient-1)" fill-rule="evenodd" xlink:href="#path-2"></use>
                </g>
                <g id="clothes-24px-glyph_makeup" transform="translate(161.682090, 55.670452) rotate(-20.000000) translate(-161.682090, -55.670452) translate(154.682090, 43.670452)" fill="#CDD0D2">
                    <g id="Group" transform="translate(0.000000, -0.000000)">
                        <path d="M13,15 L1,15 C0.4,15 -2.27373675e-13,15.4 -2.27373675e-13,16 L-2.27373675e-13,23 C-2.27373675e-13,23.6 0.4,24 1,24 L13,24 C13.6,24 14,23.6 14,23 L14,16 C14,15.4 13.6,15 13,15 L13,15 Z" id="Shape"></path>
                        <path d="M11,13 L11,4 C11,1.3 10,3.41060513e-13 8,3.41060513e-13 C5.8,3.41060513e-13 3,2.8 3,5 L3,13 L11,13 L11,13 Z" id="Shape"></path>
                    </g>
                </g>
                <g id="clothes-32px-glyph_makeup" transform="translate(11.323775, 96.733503) rotate(19.000000) translate(-11.323775, -96.733503) translate(3.823775, 83.733503)" fill="#CDD0D2">
                    <path d="M14.1666667,17.0625 L0.833333333,17.0625 C0.333333333,17.0625 9.09494702e-13,17.3875 9.09494702e-13,17.875 L9.09494702e-13,25.1875 C9.09494702e-13,25.675 0.333333333,26 0.833333333,26 L14.1666667,26 C14.6666667,26 15,25.675 15,25.1875 L15,17.875 C15,17.3875 14.6666667,17.0625 14.1666667,17.0625 L14.1666667,17.0625 Z" id="Shape"></path>
                    <path d="M11.6666667,15.4375 L11.6666667,4.0625 C11.6666667,0.4875 9.58333333,4.88853402e-12 8.33333333,4.88853402e-12 C6,4.88853402e-12 3.33333333,2.6 3.33333333,4.875 L3.33333333,15.4375 L11.6666667,15.4375 L11.6666667,15.4375 Z M5,4.875 C5,3.49375 6.91666667,1.625 8.33333333,1.625 C8.5,1.625 8.66666667,1.625 8.91666667,1.70625 C8.75,4.0625 7.5,5.28125 5,5.525 L5,4.875 L5,4.875 Z" id="Shape"></path>
                </g>
                <g id="travel-32px-glyph_spa" transform="translate(90.000000, 157.000000)">
                    <g id="Group">
                        <path d="M3.18372892,12.5045455 C3.18372892,10.0318182 4.77384187,7.09545455 6.60247176,4.62272727 C4.29680799,3.77272727 2.38867245,3.23181818 2.22966115,3.23181818 L1.43460468,3 L1.19608774,3.77272727 C1.19608774,4.08181818 -1.26858733,12.9681818 0.878065148,16.5227273 C2.3091668,18.9181818 4.69433622,19.9227273 7,20 C4.77384187,18.4545455 3.18372892,15.8272727 3.18372892,12.5045455 L3.18372892,12.5045455 Z" id="Shape" fill="#BCBFC3"></path>
                        <path d="M22.7262093,3.76923077 L22.4876173,3 L21.6923104,3.23076923 C21.6127797,3.23076923 19.6245126,3.76923077 17.3976534,4.61538462 C19.1473285,7.07692308 20.8174729,10 20.8174729,12.4615385 C20.8174729,15.8461538 19.2268592,18.3846154 17,20 C19.3063899,19.9230769 21.6923104,18.9230769 23.1238627,16.5384615 C25.2711912,12.9230769 22.80574,4.07692308 22.7262093,3.76923077 L22.7262093,3.76923077 Z" id="Shape" fill="#BCBFC3"></path>
                        <path d="M12.025,0.53030303 L11.5,0 L10.975,0.53030303 C10.675,0.833333333 4,7.8030303 4,12.3484848 C4,17.1212121 7.825,20 11.5,20 C15.175,20 19,17.1212121 19,12.3484848 C19,7.8030303 12.325,0.833333333 12.025,0.53030303 L12.025,0.53030303 Z" id="Shape" fill="#CDD0D2"></path>
                    </g>
                </g>
                <g id="design-color_paint-bucket-39" transform="translate(36.793455, 156.588778) rotate(-32.000000) translate(-36.793455, -156.588778) translate(26.293455, 143.588778)">
                    <g id="Group" transform="translate(-0.000000, 0.000000)">
                        <path d="M10.5,6.9348971e-12 C5.40971053,6.9348971e-12 -2.50111043e-12,1.38647826 -2.50111043e-12,3.95652174 L-2.50111043e-12,22.0434783 C-2.50111043e-12,24.6135217 5.40971053,26 10.5,26 C15.5902895,26 21,24.6135217 21,22.0434783 L21,3.95652174 C21,1.38647826 15.5902895,6.9348971e-12 10.5,6.9348971e-12 L10.5,6.9348971e-12 Z" id="Shape" fill="#CDCFD2"></path>
                        <path d="M19.8947368,3.95652174 C19.8947368,2.77634783 16.3203158,1.13043478 10.5,1.13043478 C4.67968421,1.13043478 1.10526316,2.77634783 1.10526316,3.95652174 C1.10526316,5.13669565 4.67968421,6.7826087 10.5,6.7826087 C10.8735789,6.7826087 11.2355526,6.77413043 11.5881316,6.76 C11.9003684,6.74756522 12.1578947,7.00530435 12.1578947,7.32465217 L12.1578947,14.0343478 C12.1578947,14.9522609 12.8298947,15.7757826 13.7268158,15.8232609 C14.6828684,15.8746957 15.4736842,15.0969565 15.4736842,14.1304348 L15.4736842,6.77582609 C15.4736842,6.50904348 15.6582632,6.2823913 15.9124737,6.2236087 C18.4507105,5.63917391 19.8947368,4.70486957 19.8947368,3.95652174 L19.8947368,3.95652174 Z" id="Shape" fill="#FAFAFA"></path>
                    </g>
                </g>
                <g id="design-color_paint-38" transform="translate(115.060371, 15.286540) rotate(-66.000000) translate(-115.060371, -15.286540) translate(104.560371, 1.286540)">
                    <g id="Group">
                        <path d="M0,15.5555556 L0,15.5555556 C0,12.8065778 2.21241176,10.5777778 4.94117647,10.5777778 L8.02941176,10.5777778 L8.02941176,2.48888889 C8.02941176,1.1144 9.13561765,0 10.5,0 L10.5,0 C11.8643824,0 12.9705882,1.1144 12.9705882,2.48888889 L12.9705882,10.5777778 L16.0588235,10.5777778 C18.7875882,10.5777778 21,12.8065778 21,15.5555556 L21,15.5555556 L0,15.5555556 L0,15.5555556 Z" id="Shape" fill="#CDD0D2"></path>
                        <path d="M1.70530257e-13,15.5555556 L1.70530257e-13,28 C2.89923529,28 5.25,25.7712 5.25,23.0222222 C5.25,25.7712 7.60076471,28 10.5,28 C13.3992353,28 15.75,25.7712 15.75,23.0222222 C15.75,25.7712 18.1007647,28 21,28 L21,15.5555556 L1.70530257e-13,15.5555556 L1.70530257e-13,15.5555556 Z" id="Shape" fill="#BCBFC3"></path>
                    </g>
                </g>
                <g id="design-color_paint-37" transform="translate(44.970842, 23.335177) rotate(29.000000) translate(-44.970842, -23.335177) translate(34.470842, 9.335177)">
                    <path d="M1.36424205e-12,12.7826087 L1.36424205e-12,12.7826087 C1.36424205e-12,15.4718261 2.21241176,17.6521739 4.94117647,17.6521739 L8.02941176,17.6521739 L8.02941176,25.5652174 C8.02941176,26.9098261 9.13561765,28 10.5,28 L10.5,28 C11.8643824,28 12.9705882,26.9098261 12.9705882,25.5652174 L12.9705882,17.6521739 L16.0588235,17.6521739 C18.7875882,17.6521739 21,15.4718261 21,12.7826087 L21,12.7826087 L1.36424205e-12,12.7826087 L1.36424205e-12,12.7826087 Z" id="Shape" fill="#CDD0D2"></path>
                    <rect id="Rectangle-path" fill="#CDD0D2" x="1.59161573e-12" y="3.04347826" width="21" height="9.73913043"></rect>
                    <path d="M21,1.2173913 C21,0.544782609 20.4472059,6.67910172e-12 19.7647059,6.67910172e-12 L1.23529412,6.67910172e-12 C0.552794118,6.67910172e-12 5.68434189e-13,0.544782609 5.68434189e-13,1.2173913 L5.68434189e-13,4.26086957 L14.2058824,4.26086957 C14.5468235,4.26086957 14.8235294,4.53356522 14.8235294,4.86956522 L14.8235294,8.4566087 C14.8235294,9.06286957 15.2441471,9.62530435 15.8512941,9.72269565 C16.6252059,9.84626087 17.2941176,9.26130435 17.2941176,8.52173913 L17.2941176,4.86956522 C17.2941176,4.53356522 17.5708235,4.26086957 17.9117647,4.26086957 L21,4.26086957 L21,1.2173913 L21,1.2173913 Z" id="Shape" fill="#BCBFC3"></path>
                    <rect id="Rectangle-path" fill="#CDD0D2" x="1.02318154e-12" y="11.5652174" width="21" height="1.2173913"></rect>
                </g>
                <g id="design-color_palette" transform="translate(169.495379, 129.265168) rotate(-26.000000) translate(-169.495379, -129.265168) translate(156.995379, 117.265168)">
                    <g id="Group" transform="translate(-0.000000, 0.000000)">
                        <path d="M21.4304348,5.508 C18.426087,4.06472727 15.6902174,4.93363636 13.4923913,5.63181818 C11.5353261,6.25363636 10.3923913,6.56072727 9.67445652,5.67272727 C9.45597826,5.37981818 9.625,4.81527273 9.80326087,4.21745455 C10.0652174,3.34036364 10.3918478,2.24890909 9.67173913,1.30636364 C8.74293478,0.0829090909 6.67065217,0.256909091 5.31141304,1.19072727 C1.98532609,3.54054545 -2.38742359e-12,7.37781818 -2.38742359e-12,11.4545455 C-2.38742359e-12,18.372 5.6076087,24 12.5,24 C18.0690217,24 23.0152174,20.2483636 24.5342391,14.8592727 C24.7092391,14.1490909 26.1146739,7.85836364 21.4304348,5.508 L21.4304348,5.508 Z M17.9347826,13.6363636 C16.7342391,13.6363636 15.7608696,12.6594545 15.7608696,11.4545455 C15.7608696,10.2496364 16.7342391,9.27272727 17.9347826,9.27272727 C19.1353261,9.27272727 20.1086957,10.2496364 20.1086957,11.4545455 C20.1086957,12.6594545 19.1353261,13.6363636 17.9347826,13.6363636 L17.9347826,13.6363636 Z" id="Shape" fill="#CDD0D2"></path>
                        <ellipse id="Oval" fill="#FAFAFA" cx="4.89130435" cy="11.4545455" rx="1.63043478" ry="1.63636364"></ellipse>
                        <ellipse id="Oval" fill="#FAFAFA" cx="7.60869565" cy="16.9090909" rx="1.63043478" ry="1.63636364"></ellipse>
                        <ellipse id="Oval" fill="#FAFAFA" cx="13.5869565" cy="19.0909091" rx="1.63043478" ry="1.63636364"></ellipse>
                    </g>
                </g>
                <g id="users-color_woman-35" transform="translate(69.000000, 64.000000)">
                    <g id="Shape">
                        <use fill="black" fill-opacity="1" filter="url(#filter-6)" xlink:href="#path-5"></use>
                        <use fill="url(#linearGradient-4)" fill-rule="evenodd" xlink:href="#path-5"></use>
                    </g>
                    <g id="Rectangle-path">
                        <use fill="black" fill-opacity="1" filter="url(#filter-9)" xlink:href="#path-8"></use>
                        <use fill="url(#linearGradient-7)" fill-rule="evenodd" xlink:href="#path-8"></use>
                    </g>
                    <g id="Shape">
                        <use fill="black" fill-opacity="1" filter="url(#filter-12)" xlink:href="#path-11"></use>
                        <use fill="url(#linearGradient-10)" fill-rule="evenodd" xlink:href="#path-11"></use>
                    </g>
                    <g id="Shape">
                        <use fill="black" fill-opacity="1" filter="url(#filter-14)" xlink:href="#path-13"></use>
                        <use fill="url(#linearGradient-10)" fill-rule="evenodd" xlink:href="#path-13"></use>
                    </g>
                    <g id="Shape">
                        <use fill="black" fill-opacity="1" filter="url(#filter-16)" xlink:href="#path-15"></use>
                        <use fill="url(#linearGradient-10)" fill-rule="evenodd" xlink:href="#path-15"></use>
                    </g>
                    <g id="Shape">
                        <use fill="black" fill-opacity="1" filter="url(#filter-18)" xlink:href="#path-17"></use>
                        <use fill="url(#linearGradient-10)" fill-rule="evenodd" xlink:href="#path-17"></use>
                    </g>
                </g>
                <g id="design-color_photo-editor" transform="translate(107.000000, 99.000000)">
                    <g id="Group">
                        <g id="Shape">
                            <use fill="black" fill-opacity="1" filter="url(#filter-20)" xlink:href="#path-19"></use>
                            <use fill-opacity="0.9" fill="#43A6DD" fill-rule="evenodd" xlink:href="#path-19"></use>
                        </g>
                        <g id="Shape">
                            <use fill="black" fill-opacity="1" filter="url(#filter-22)" xlink:href="#path-21"></use>
                            <use fill-opacity="0.9" fill="#E86C60" fill-rule="evenodd" xlink:href="#path-21"></use>
                        </g>
                        <g id="Shape">
                            <use fill="black" fill-opacity="1" filter="url(#filter-24)" xlink:href="#path-23"></use>
                            <use fill-opacity="0.9" fill="#EFD358" fill-rule="evenodd" xlink:href="#path-23"></use>
                        </g>
                    </g>
                </g>
            </g>
        </g>
    </g>
</svg>