<?xml version="1.0" encoding="UTF-8" standalone="no"?>
<svg width="166px" height="153px" viewBox="0 0 166 153" version="1.1" xmlns="http://www.w3.org/2000/svg" xmlns:xlink="http://www.w3.org/1999/xlink">
    <!-- Generator: Sketch 3.8.3 (29802) - http://www.bohemiancoding.com/sketch -->
    <title>Group 22</title>
    <desc>Created with Sketch.</desc>
    <defs>
        <linearGradient x1="101.999998%" y1="0%" x2="101.999998%" y2="100.999999%" id="linearGradient-1">
            <stop stop-color="#60FFFE" offset="0%"></stop>
            <stop stop-color="#18B8D5" offset="100%"></stop>
        </linearGradient>
        <rect id="path-2" x="30" y="18" width="109" height="105" rx="32"></rect>
        <filter x="-50%" y="-50%" width="200%" height="200%" filterUnits="objectBoundingBox" id="filter-3">
            <feOffset dx="0" dy="3" in="SourceAlpha" result="shadowOffsetOuter1"></feOffset>
            <feGaussianBlur stdDeviation="3" in="shadowOffsetOuter1" result="shadowBlurOuter1"></feGaussianBlur>
            <feColorMatrix values="0 0 0 0 0.318195142   0 0 0 0 0.406744725   0 0 0 0 0.458227041  0 0 0 0.11 0" type="matrix" in="shadowBlurOuter1"></feColorMatrix>
        </filter>
        <linearGradient x1="50%" y1="0%" x2="50%" y2="100%" id="linearGradient-4">
            <stop stop-color="#FFFFFF" stop-opacity="0.926064312" offset="0%"></stop>
            <stop stop-color="#FFFFFF" stop-opacity="0.568812274" offset="100%"></stop>
        </linearGradient>
    </defs>
    <g id="website" stroke="none" stroke-width="1" fill="none" fill-rule="evenodd">
        <g id="直播推流-SDK" transform="translate(-181.000000, -2730.000000)">
            <g id="Group-22" transform="translate(181.000000, 2730.000000)">
                <g id="business-64px-glyph_pig" fill="#CDCFD2">
                    <g id="Group">
                        <path d="M20.8870968,0 C18.5596774,0 16.7096774,1.86 16.7096774,4.2 C16.7096774,6.54 18.5596774,8.4 20.8870968,8.4 C23.2145161,8.4 25.0645161,6.54 25.0645161,4.2 C25.0645161,1.86 23.2145161,0 20.8870968,0 L20.8870968,0 Z" id="Shape"></path>
                        <path d="M34.9112903,15.72 C34.6129032,15.66 34.2548387,15.84 34.1951613,16.2 C34.1354839,16.5 34.3145161,16.86 34.6725806,16.92 C34.7919355,16.92 35.8064516,17.22 35.8064516,18.78 C35.8064516,19.92 35.3887097,20.7 34.6129032,21.12 C34.3145161,15.36 29.6,10.8 23.8709677,10.8 L14.6806452,10.8 C12.7112903,7.5 9.78709677,7.02 8.23548387,7.02 C7.16129032,7.02 6.44516129,7.26 6.38548387,7.26 C6.20645161,7.32 6.08709677,7.44 6.02741935,7.56 C5.96774194,7.68 5.96774194,7.86 5.96774194,8.04 L7.63870968,13.14 C6.08709677,14.4 4.89354839,16.08 4.17741935,18 L0.596774194,18 C0.238709677,18 0,18.24 0,18.6 L0,27 C0,27.36 0.238709677,27.6 0.596774194,27.6 L5.43064516,27.6 C6.50483871,29.16 7.87741935,30.42 9.5483871,31.26 L9.5483871,35.4 C9.5483871,35.76 9.78709677,36 10.1451613,36 L16.1129032,36 C16.4709677,36 16.7096774,35.76 16.7096774,35.4 L16.7096774,32.4 L21.483871,32.4 L21.483871,35.4 C21.483871,35.76 21.7225806,36 22.0806452,36 L28.0483871,36 C28.4064516,36 28.6451613,35.76 28.6451613,35.4 L28.6451613,31.26 C32.0467742,29.58 34.3145161,26.16 34.5532258,22.38 C36.1048387,21.9 37,20.58 37,18.72 C37,16.68 35.6274194,15.84 34.9112903,15.72 L34.9112903,15.72 Z M10.7419355,21 C9.72741935,21 8.9516129,20.22 8.9516129,19.2 C8.9516129,18.18 9.72741935,17.4 10.7419355,17.4 C11.7564516,17.4 12.5322581,18.18 12.5322581,19.2 C12.5322581,20.22 11.7564516,21 10.7419355,21 L10.7419355,21 Z M24.4677419,15.6 L17.3064516,15.6 C16.9483871,15.6 16.7096774,15.36 16.7096774,15 C16.7096774,14.64 16.9483871,14.4 17.3064516,14.4 L24.4677419,14.4 C24.8258065,14.4 25.0645161,14.64 25.0645161,15 C25.0645161,15.36 24.8258065,15.6 24.4677419,15.6 L24.4677419,15.6 Z" id="Shape"></path>
                    </g>
                </g>
                <g id="business-64px-glyph_pig-copy" transform="translate(147.500000, 106.000000) scale(-1, 1) translate(-147.500000, -106.000000) translate(129.000000, 88.000000)" fill="#CDCFD2">
                    <g id="Group">
                        <path d="M20.8870968,0 C18.5596774,0 16.7096774,1.86 16.7096774,4.2 C16.7096774,6.54 18.5596774,8.4 20.8870968,8.4 C23.2145161,8.4 25.0645161,6.54 25.0645161,4.2 C25.0645161,1.86 23.2145161,0 20.8870968,0 L20.8870968,0 Z" id="Shape"></path>
                        <path d="M34.9112903,15.72 C34.6129032,15.66 34.2548387,15.84 34.1951613,16.2 C34.1354839,16.5 34.3145161,16.86 34.6725806,16.92 C34.7919355,16.92 35.8064516,17.22 35.8064516,18.78 C35.8064516,19.92 35.3887097,20.7 34.6129032,21.12 C34.3145161,15.36 29.6,10.8 23.8709677,10.8 L14.6806452,10.8 C12.7112903,7.5 9.78709677,7.02 8.23548387,7.02 C7.16129032,7.02 6.44516129,7.26 6.38548387,7.26 C6.20645161,7.32 6.08709677,7.44 6.02741935,7.56 C5.96774194,7.68 5.96774194,7.86 5.96774194,8.04 L7.63870968,13.14 C6.08709677,14.4 4.89354839,16.08 4.17741935,18 L0.596774194,18 C0.238709677,18 0,18.24 0,18.6 L0,27 C0,27.36 0.238709677,27.6 0.596774194,27.6 L5.43064516,27.6 C6.50483871,29.16 7.87741935,30.42 9.5483871,31.26 L9.5483871,35.4 C9.5483871,35.76 9.78709677,36 10.1451613,36 L16.1129032,36 C16.4709677,36 16.7096774,35.76 16.7096774,35.4 L16.7096774,32.4 L21.483871,32.4 L21.483871,35.4 C21.483871,35.76 21.7225806,36 22.0806452,36 L28.0483871,36 C28.4064516,36 28.6451613,35.76 28.6451613,35.4 L28.6451613,31.26 C32.0467742,29.58 34.3145161,26.16 34.5532258,22.38 C36.1048387,21.9 37,20.58 37,18.72 C37,16.68 35.6274194,15.84 34.9112903,15.72 L34.9112903,15.72 Z M10.7419355,21 C9.72741935,21 8.9516129,20.22 8.9516129,19.2 C8.9516129,18.18 9.72741935,17.4 10.7419355,17.4 C11.7564516,17.4 12.5322581,18.18 12.5322581,19.2 C12.5322581,20.22 11.7564516,21 10.7419355,21 L10.7419355,21 Z M24.4677419,15.6 L17.3064516,15.6 C16.9483871,15.6 16.7096774,15.36 16.7096774,15 C16.7096774,14.64 16.9483871,14.4 17.3064516,14.4 L24.4677419,14.4 C24.8258065,14.4 25.0645161,14.64 25.0645161,15 C25.0645161,15.36 24.8258065,15.6 24.4677419,15.6 L24.4677419,15.6 Z" id="Shape"></path>
                    </g>
                </g>
                <g id="files-64px-glyph_zip-54" transform="translate(132.000000, 6.000000)" fill="#CDCFD2">
                    <g id="Group">
                        <path d="M15,19.0967742 C14.64,19.0967742 14.4,18.8580645 14.4,18.5 L14.4,17.3064516 C14.4,16.9483871 14.64,16.7096774 15,16.7096774 C15.36,16.7096774 15.6,16.9483871 15.6,17.3064516 L15.6,18.5 C15.6,18.8580645 15.36,19.0967742 15,19.0967742 L15,19.0967742 Z" id="Shape"></path>
                        <path d="M29.4,0 L19.8,0 C19.5,0 19.26,0.179032258 19.2,0.477419355 L16.32,11.9354839 L18.6,11.9354839 C18.96,11.9354839 19.2,12.1741935 19.2,12.5322581 L19.2,22.0806452 C19.2,22.4387097 18.96,22.6774194 18.6,22.6774194 L11.4,22.6774194 C11.04,22.6774194 10.8,22.4387097 10.8,22.0806452 L10.8,12.5322581 C10.8,12.1741935 11.04,11.9354839 11.4,11.9354839 L13.68,11.9354839 L10.8,0.477419355 C10.74,0.179032258 10.5,0 10.2,0 L0.6,0 C0.24,0 0,0.238709677 0,0.596774194 L0,36.4032258 C0,36.7612903 0.24,37 0.6,37 L29.4,37 C29.76,37 30,36.7612903 30,36.4032258 L30,0.596774194 C30,0.238709677 29.76,0 29.4,0 L29.4,0 Z" id="Shape"></path>
                    </g>
                </g>
                <g id="emoticons-64px-glyph_robot" transform="translate(30.000000, 116.000000)" fill="#CDCFD2">
                    <path d="M32.8225806,7.16129032 L32.2258065,7.16129032 L32.2258065,4.17741935 L35.8064516,4.17741935 C36.1645161,4.17741935 36.4032258,3.93870968 36.4032258,3.58064516 L36.4032258,0.596774194 C36.4032258,0.238709677 36.1645161,0 35.8064516,0 L27.4516129,0 C27.0935484,0 26.8548387,0.238709677 26.8548387,0.596774194 L26.8548387,3.58064516 C26.8548387,3.93870968 27.0935484,4.17741935 27.4516129,4.17741935 L31.0322581,4.17741935 L31.0322581,7.16129032 L5.96774194,7.16129032 L5.96774194,4.17741935 L9.5483871,4.17741935 C9.90645161,4.17741935 10.1451613,3.93870968 10.1451613,3.58064516 L10.1451613,0.596774194 C10.1451613,0.238709677 9.90645161,0 9.5483871,0 L1.19354839,0 C0.835483871,0 0.596774194,0.238709677 0.596774194,0.596774194 L0.596774194,3.58064516 C0.596774194,3.93870968 0.835483871,4.17741935 1.19354839,4.17741935 L4.77419355,4.17741935 L4.77419355,7.16129032 L4.17741935,7.16129032 C1.85,7.16129032 0,9.01129032 0,11.3387097 L0,32.8225806 C0,35.15 1.85,37 4.17741935,37 L32.8225806,37 C35.15,37 37,35.15 37,32.8225806 L37,11.3387097 C37,9.01129032 35.15,7.16129032 32.8225806,7.16129032 L32.8225806,7.16129032 Z M23.8709677,13.7258065 L29.2419355,13.7258065 C29.6,13.7258065 29.8387097,13.9645161 29.8387097,14.3225806 C29.8387097,14.6806452 29.6,14.9193548 29.2419355,14.9193548 L23.8709677,14.9193548 C23.5129032,14.9193548 23.2741935,14.6806452 23.2741935,14.3225806 C23.2741935,13.9645161 23.5129032,13.7258065 23.8709677,13.7258065 L23.8709677,13.7258065 Z M7.75806452,13.7258065 L13.1290323,13.7258065 C13.4870968,13.7258065 13.7258065,13.9645161 13.7258065,14.3225806 C13.7258065,14.6806452 13.4870968,14.9193548 13.1290323,14.9193548 L7.75806452,14.9193548 C7.4,14.9193548 7.16129032,14.6806452 7.16129032,14.3225806 C7.16129032,13.9645161 7.4,13.7258065 7.75806452,13.7258065 L7.75806452,13.7258065 Z M31.0322581,31.0322581 C31.0322581,31.3903226 30.7935484,31.6290323 30.4354839,31.6290323 L6.56451613,31.6290323 C6.20645161,31.6290323 5.96774194,31.3903226 5.96774194,31.0322581 L5.96774194,20.2903226 C5.96774194,19.9322581 6.20645161,19.6935484 6.56451613,19.6935484 L30.4354839,19.6935484 C30.7935484,19.6935484 31.0322581,19.9322581 31.0322581,20.2903226 L31.0322581,31.0322581 L31.0322581,31.0322581 Z" id="Shape"></path>
                </g>
                <g id="Rectangle-295-Copy">
                    <use fill="black" fill-opacity="1" filter="url(#filter-3)" xlink:href="#path-2"></use>
                    <use fill="url(#linearGradient-1)" fill-rule="evenodd" xlink:href="#path-2"></use>
                </g>
                <g id="files-24px-outline_zip-54-copy" transform="translate(63.000000, 44.000000)" stroke="url(#linearGradient-4)" stroke-width="4.61376721">
                    <polyline id="Shape" points="23.3333333 13.9090909 30.3333333 0 42 0 42 51 0 51 0 0 11.6666667 0 18.6666667 13.9090909"></polyline>
                    <rect id="Rectangle-path" x="14" y="13.9090909" width="14" height="16.2272727"></rect>
                    <path d="M21,20.8636364 L21,23.1818182" id="Shape"></path>
                    <path d="M18.6666667,44.0454545 L23.3333333,44.0454545" id="Shape"></path>
                    <path d="M18.6666667,37.0909091 L23.3333333,37.0909091" id="Shape"></path>
                </g>
            </g>
        </g>
    </g>
</svg>