<?xml version="1.0" encoding="UTF-8" standalone="no"?>
<svg width="379px" height="267px" viewBox="0 0 379 267" version="1.1" xmlns="http://www.w3.org/2000/svg" xmlns:xlink="http://www.w3.org/1999/xlink">
    <!-- Generator: Sketch 3.8.3 (29802) - http://www.bohemiancoding.com/sketch -->
    <title>Group 8</title>
    <desc>Created with Sketch.</desc>
    <defs>
        <circle id="path-1" cx="40" cy="40" r="40"></circle>
        <filter x="-50%" y="-50%" width="200%" height="200%" filterUnits="objectBoundingBox" id="filter-2">
            <feMorphology radius="0.5" operator="dilate" in="SourceAlpha" result="shadowSpreadOuter1"></feMorphology>
            <feOffset dx="0" dy="6" in="shadowSpreadOuter1" result="shadowOffsetOuter1"></feOffset>
            <feGaussianBlur stdDeviation="7" in="shadowOffsetOuter1" result="shadowBlurOuter1"></feGaussianBlur>
            <feComposite in="shadowBlurOuter1" in2="SourceAlpha" operator="out" result="shadowBlurOuter1"></feComposite>
            <feColorMatrix values="0 0 0 0 0   0 0 0 0 0   0 0 0 0 0  0 0 0 0.124348958 0" type="matrix" in="shadowBlurOuter1"></feColorMatrix>
        </filter>
        <circle id="path-3" cx="40" cy="40" r="40"></circle>
        <filter x="-50%" y="-50%" width="200%" height="200%" filterUnits="objectBoundingBox" id="filter-4">
            <feOffset dx="0" dy="6" in="SourceAlpha" result="shadowOffsetOuter1"></feOffset>
            <feGaussianBlur stdDeviation="7" in="shadowOffsetOuter1" result="shadowBlurOuter1"></feGaussianBlur>
            <feColorMatrix values="0 0 0 0 0   0 0 0 0 0   0 0 0 0 0  0 0 0 0.124348958 0" type="matrix" in="shadowBlurOuter1"></feColorMatrix>
        </filter>
        <circle id="path-5" cx="40" cy="40" r="40"></circle>
        <filter x="-50%" y="-50%" width="200%" height="200%" filterUnits="objectBoundingBox" id="filter-6">
            <feMorphology radius="0.5" operator="dilate" in="SourceAlpha" result="shadowSpreadOuter1"></feMorphology>
            <feOffset dx="0" dy="6" in="shadowSpreadOuter1" result="shadowOffsetOuter1"></feOffset>
            <feGaussianBlur stdDeviation="7" in="shadowOffsetOuter1" result="shadowBlurOuter1"></feGaussianBlur>
            <feComposite in="shadowBlurOuter1" in2="SourceAlpha" operator="out" result="shadowBlurOuter1"></feComposite>
            <feColorMatrix values="0 0 0 0 0   0 0 0 0 0   0 0 0 0 0  0 0 0 0.124348958 0" type="matrix" in="shadowBlurOuter1"></feColorMatrix>
        </filter>
        <circle id="path-7" cx="40" cy="40" r="40"></circle>
        <filter x="-50%" y="-50%" width="200%" height="200%" filterUnits="objectBoundingBox" id="filter-8">
            <feOffset dx="0" dy="6" in="SourceAlpha" result="shadowOffsetOuter1"></feOffset>
            <feGaussianBlur stdDeviation="7" in="shadowOffsetOuter1" result="shadowBlurOuter1"></feGaussianBlur>
            <feColorMatrix values="0 0 0 0 0   0 0 0 0 0   0 0 0 0 0  0 0 0 0.124348958 0" type="matrix" in="shadowBlurOuter1"></feColorMatrix>
        </filter>
        <circle id="path-9" cx="40" cy="40" r="40"></circle>
        <filter x="-50%" y="-50%" width="200%" height="200%" filterUnits="objectBoundingBox" id="filter-10">
            <feMorphology radius="0.5" operator="dilate" in="SourceAlpha" result="shadowSpreadOuter1"></feMorphology>
            <feOffset dx="0" dy="6" in="shadowSpreadOuter1" result="shadowOffsetOuter1"></feOffset>
            <feGaussianBlur stdDeviation="7" in="shadowOffsetOuter1" result="shadowBlurOuter1"></feGaussianBlur>
            <feComposite in="shadowBlurOuter1" in2="SourceAlpha" operator="out" result="shadowBlurOuter1"></feComposite>
            <feColorMatrix values="0 0 0 0 0   0 0 0 0 0   0 0 0 0 0  0 0 0 0.124348958 0" type="matrix" in="shadowBlurOuter1"></feColorMatrix>
        </filter>
    </defs>
    <g id="website" stroke="none" stroke-width="1" fill="none" fill-rule="evenodd">
        <g id="index-menu" transform="translate(-573.000000, -1707.000000)">
            <g id="Group-8" transform="translate(587.000000, 1715.000000)">
                <g id="Group-3" transform="translate(191.000000, 0.000000)">
                    <g id="Oval-1-Copy-2">
                        <use fill="black" fill-opacity="1" filter="url(#filter-2)" xlink:href="#path-1"></use>
                        <use stroke="#3EE1BD" stroke-width="1" fill="#3EE1BD" fill-rule="evenodd" xlink:href="#path-1"></use>
                    </g>
                    <g id="business-32px-glyph_board-27" transform="translate(24.000000, 18.000000)" fill="#FFFFFF">
                        <g id="Group">
                            <path d="M4,20 L28,20 C28.6,20 29,19.6 29,19 L29,3 C29,2.4 28.6,2 28,2 L19,2 L19,1 C19,0.4 18.6,0 18,0 L14,0 C13.4,0 13,0.4 13,1 L13,2 L4,2 C3.4,2 3,2.4 3,3 L3,19 C3,19.6 3.4,20 4,20 L4,20 Z" id="Shape"></path>
                            <path d="M31,22 L1,22 C0.4,22 0,22.4 0,23 L0,24 C0,24.6 0.4,25 1,25 L10.8,25 L6.2,30.3 C5.8,30.7 5.9,31.4 6.3,31.7 C6.5,31.9 6.8,32 7,32 C7.3,32 7.6,31.9 7.8,31.7 L13.5,25 L15,25 L15,30 C15,30.6 15.4,31 16,31 C16.6,31 17,30.6 17,30 L17,25 L18.5,25 L24.2,31.7 C24.4,31.9 24.7,32 25,32 C25.2,32 25.5,31.9 25.7,31.8 C26.1,31.4 26.2,30.8 25.8,30.4 L21.2,25 L31,25 C31.6,25 32,24.6 32,24 L32,23 C32,22.4 31.6,22 31,22 L31,22 Z" id="Shape"></path>
                        </g>
                    </g>
                    <text id="-copy" font-family="PingFangSC-Medium, PingFang SC" font-size="11" font-weight="400" fill="#FFFFFF">
                        <tspan x="29" y="68">教育</tspan>
                    </text>
                </g>
                <g id="Group-3-Copy" transform="translate(271.000000, 119.000000)">
                    <g id="Oval-1-Copy-2">
                        <use fill="black" fill-opacity="1" filter="url(#filter-4)" xlink:href="#path-3"></use>
                        <use fill="#5CD747" fill-rule="evenodd" xlink:href="#path-3"></use>
                    </g>
                    <text id="媒体" font-family="PingFangSC-Medium, PingFang SC" font-size="11" font-weight="400" fill="#FFFFFF">
                        <tspan x="29" y="68">媒体</tspan>
                    </text>
                    <g id="media-32px-glyph-1_videocamera-71" transform="translate(24.000000, 21.000000)" fill="#FFFFFF">
                        <path d="M12.4,29.4 C12.6,29.7 13,29.9 13.4,30 C13.8,30.1 14.2,29.9 14.5,29.7 C14.8,29.5 15,29.1 15.1,28.7 C15.2,28.3 15,27.9 14.8,27.6 L12.8,25 L9,25 L12.4,29.4 L12.4,29.4 Z" id="Shape"></path>
                        <path d="M31.5,6.2 C31.2,6 30.9,6 30.5,6.1 L23,9.5 L23,5 C23,4.4 22.6,4 22,4 L20,4 L20,1 C20,0.4 19.6,0 19,0 L7,0 C6.4,0 6,0.4 6,1 C6,1.6 6.4,2 7,2 L18,2 L18,4 L1,4 C0.4,4 0,4.4 0,5 L0,22 C0,22.6 0.4,23 1,23 L22,23 C22.6,23 23,22.6 23,22 L23,17.5 L30.6,20.9 C30.7,21 30.9,21 31,21 C31.2,21 31.4,20.9 31.5,20.8 C31.8,20.6 32,20.3 32,20 L32,7 C32,6.7 31.8,6.3 31.5,6.2 L31.5,6.2 Z M6,12 C4.9,12 4,11.1 4,10 C4,8.9 4.9,8 6,8 C7.1,8 8,8.9 8,10 C8,11.1 7.1,12 6,12 L6,12 Z M18,10 L15,10 C14.4,10 14,9.6 14,9 C14,8.4 14.4,8 15,8 L18,8 C18.6,8 19,8.4 19,9 C19,9.6 18.6,10 18,10 L18,10 Z" id="Shape"></path>
                    </g>
                </g>
                <g id="Group-6" transform="translate(131.000000, 114.000000)">
                    <g id="Oval-1">
                        <use fill="black" fill-opacity="1" filter="url(#filter-6)" xlink:href="#path-5"></use>
                        <use stroke="#F8294C" stroke-width="1" fill="#FF6F6F" fill-rule="evenodd" xlink:href="#path-5"></use>
                    </g>
                    <g id="clothes-32px-glyph_dress-woman" transform="translate(27.000000, 18.000000)" fill="#FFFFFF">
                        <g id="Group">
                            <path d="M21.2,11 C21.5,9.1 22,5.1 22,1 C22,0.4 21.6,0 21,0 C16.8,0 14.2,1.7 13,2.6 C11.8,1.7 9.2,0 5,0 C4.4,0 4,0.4 4,1 C4,5.1 4.5,9.1 4.8,11 L21.2,11 L21.2,11 Z" id="Shape"></path>
                            <path d="M4.4,13 C3,16 0,23.2 0,31 C0,31.6 0.4,32 1,32 L25,32 C25.6,32 26,31.6 26,31 C26,23.2 23,16 21.6,13 L4.4,13 L4.4,13 Z" id="Shape"></path>
                        </g>
                    </g>
                    <text id="秀场" font-family="PingFangSC-Medium, PingFang SC" font-size="11" font-weight="400" fill="#FFFFFF">
                        <tspan x="29" y="70">秀场</tspan>
                    </text>
                </g>
                <g id="Group-6-Copy" transform="translate(19.000000, 30.000000)">
                    <g id="Oval-1">
                        <use fill="black" fill-opacity="1" filter="url(#filter-8)" xlink:href="#path-7"></use>
                        <use fill="#CC29F8" fill-rule="evenodd" xlink:href="#path-7"></use>
                    </g>
                    <g id="users-32px-glyph_multiple-19" transform="translate(25.000000, 21.000000)" fill="#FFFFFF">
                        <path d="M28.5,11.1 L25.1,9.2 L25.1,9.2 C25.7,8.4 26.1,7.5 26.1,6.5 L26.1,4.5 C26,2 24,0 21.5,0 C19.8,0 18.4,0.9 17.6,2.3 C19.1,3.7 20,5.8 20,8 L20,11 C20,12.5 19.6,13.9 18.8,15.2 L23.7,18.5 C23.9,18.7 24.2,18.9 24.4,19.1 L30,19.1 L30,13.9 C30,12.7 29.4,11.7 28.5,11.1 L28.5,11.1 Z" id="Shape"></path>
                        <path d="M22.7,20.1 L15.9,15.6 L15.9,15.6 C17.2,14.5 18,12.9 18,11 L18,8 C18,4.7 15.3,2 12,2 C8.7,2 6,4.7 6,8 L6,11 C6,12.8 6.8,14.5 8.1,15.6 L8.1,15.6 L1.3,20.1 C0.5,20.7 0,21.6 0,22.6 L0,28 L24,28 L24,22.6 C24,21.6 23.5,20.7 22.7,20.1 L22.7,20.1 Z" id="Shape"></path>
                    </g>
                    <text id="社交" font-family="PingFangSC-Medium, PingFang SC" font-size="11" font-weight="400" fill="#FFFFFF">
                        <tspan x="29" y="69">社交</tspan>
                    </text>
                </g>
                <g id="Group-7" transform="translate(0.000000, 159.000000)">
                    <g id="Oval-1-Copy">
                        <use fill="black" fill-opacity="1" filter="url(#filter-10)" xlink:href="#path-9"></use>
                        <use stroke="#EBD527" stroke-width="1" fill="#EBD527" fill-rule="evenodd" xlink:href="#path-9"></use>
                    </g>
                    <text id="游戏" font-family="PingFangSC-Medium, PingFang SC" font-size="11" font-weight="400" fill="#FFFFFF">
                        <tspan x="29" y="69">游戏</tspan>
                    </text>
                    <path d="M40,26 C40.6,26 41,25.6 41,25 L41,19 C41,18.4 40.6,18 40,18 C39.4,18 39,18.4 39,19 L39,25 C39,25.6 39.4,26 40,26 L40,26 Z" id="Shape" fill="#FFFFFF"></path>
                    <path d="M56,44.3 L53.2,30.2 C52.7,27.6 50.4,25.7 47.7,25.7 C46.2,25.7 44.8,26.3 43.7,27.4 L43,28 L37,28 L36.4,27.4 C35.3,26.3 33.9,25.7 32.4,25.7 C29.7,25.7 27.4,27.6 26.9,30.2 L24,44.3 C23.8,45.3 24.2,46.3 25.1,46.8 C25.5,47.1 25.9,47.2 26.4,47.2 C26.9,47.2 27.4,47 27.9,46.7 L31.3,44.1 C32.1,44.7 33,45 34,45 C35.9,45 37.6,43.9 38.4,42.3 L41.6,42.3 C42.4,43.9 44.1,45 46,45 C47,45 47.9,44.7 48.7,44.2 L52.1,46.8 C52.9,47.4 54,47.5 54.8,46.9 C55.7,46.3 56.2,45.3 56,44.3 L56,44.3 Z M34,43 C32.3,43 31,41.7 31,40 C31,38.3 32.3,37 34,37 C35.7,37 37,38.3 37,40 C37,41.7 35.7,43 34,43 L34,43 Z M43,40 C43,38.3 44.3,37 46,37 C47.7,37 49,38.3 49,40 C49,41.7 47.7,43 46,43 C44.3,43 43,41.7 43,40 L43,40 Z" id="Shape" fill="#FFFFFF"></path>
                </g>
            </g>
        </g>
    </g>
</svg>