<?xml version="1.0" encoding="UTF-8" standalone="no"?>
<svg width="32px" height="32px" viewBox="0 0 32 32" version="1.1" xmlns="http://www.w3.org/2000/svg" xmlns:xlink="http://www.w3.org/1999/xlink">
    <!-- Generator: Sketch 3.8.3 (29802) - http://www.bohemiancoding.com/sketch -->
    <title>design-32px-glyph_patch-19</title>
    <desc>Created with Sketch.</desc>
    <defs></defs>
    <g id="website" stroke="none" stroke-width="1" fill="none" fill-rule="evenodd">
        <g id="功能特性" transform="translate(-281.000000, -1350.000000)" fill="#746BCD">
            <g id="design-32px-glyph_patch-19" transform="translate(281.000000, 1350.000000)">
                <g id="Group">
                    <path d="M25,6 L7,6 C6.447,6 6,6.448 6,7 L6,25 C6,25.552 6.447,26 7,26 L25,26 C25.553,26 26,25.552 26,25 L26,7 C26,6.448 25.553,6 25,6 L25,6 Z" id="Shape"></path>
                    <rect id="Rectangle-path" x="15" y="0" width="2" height="4"></rect>
                    <rect id="Rectangle-path" x="11" y="0" width="2" height="4"></rect>
                    <rect id="Rectangle-path" x="19" y="0" width="2" height="4"></rect>
                    <rect id="Rectangle-path" transform="translate(30.000000, 16.000000) rotate(90.000000) translate(-30.000000, -16.000000) " x="29" y="14" width="2" height="4"></rect>
                    <rect id="Rectangle-path" transform="translate(30.000000, 12.000000) rotate(90.000000) translate(-30.000000, -12.000000) " x="29" y="10" width="2" height="4"></rect>
                    <rect id="Rectangle-path" transform="translate(30.000000, 20.000000) rotate(90.000000) translate(-30.000000, -20.000000) " x="29" y="18" width="2" height="4"></rect>
                    <rect id="Rectangle-path" transform="translate(16.000000, 30.000000) rotate(180.000000) translate(-16.000000, -30.000000) " x="15" y="28" width="2" height="4"></rect>
                    <rect id="Rectangle-path" transform="translate(20.000000, 30.000000) rotate(180.000000) translate(-20.000000, -30.000000) " x="19" y="28" width="2" height="4"></rect>
                    <rect id="Rectangle-path" transform="translate(12.000000, 30.000000) rotate(180.000000) translate(-12.000000, -30.000000) " x="11" y="28" width="2" height="4"></rect>
                    <rect id="Rectangle-path" transform="translate(2.000000, 16.000000) rotate(-90.000000) translate(-2.000000, -16.000000) " x="1" y="14" width="2" height="4"></rect>
                    <rect id="Rectangle-path" transform="translate(2.000000, 20.000000) rotate(-90.000000) translate(-2.000000, -20.000000) " x="1" y="18" width="2" height="4"></rect>
                    <rect id="Rectangle-path" transform="translate(2.000000, 12.000000) rotate(-90.000000) translate(-2.000000, -12.000000) " x="1" y="10" width="2" height="4"></rect>
                </g>
            </g>
        </g>
    </g>
</svg>