<?xml version="1.0" encoding="UTF-8" standalone="no"?>
<svg width="36px" height="32px" viewBox="0 0 36 32" version="1.1" xmlns="http://www.w3.org/2000/svg" xmlns:xlink="http://www.w3.org/1999/xlink">
    <!-- Generator: Sketch 3.8.3 (29802) - http://www.bohemiancoding.com/sketch -->
    <title>Group 11 Copy</title>
    <desc>Created with Sketch.</desc>
    <defs></defs>
    <g id="website" stroke="none" stroke-width="1" fill="none" fill-rule="evenodd">
        <g id="功能特性" transform="translate(-282.000000, -383.000000)">
            <g id="Group-11-Copy" transform="translate(260.000000, 359.000000)">
                <g id="products-heroicon-payment"></g>
                <g id="design-24px-glyph_code-editor" transform="translate(22.857143, 24.285714)" fill="#4AD3B8">
                    <g id="Group">
                        <path d="M7.14285714,0 L1.42857143,0 C0.64,0 0,0.64 0,1.42857143 L0,30 C0,30.7885714 0.64,31.4285714 1.42857143,31.4285714 L7.14285714,31.4285714 L7.14285714,0 L7.14285714,0 Z" id="Shape"></path>
                        <path d="M10,0 L10,31.4285714 L32.8571429,31.4285714 C33.6457143,31.4285714 34.2857143,30.7885714 34.2857143,30 L34.2857143,1.42857143 C34.2857143,0.64 33.6457143,0 32.8571429,0 L10,0 L10,0 Z M15.7142857,5.71428571 L20,5.71428571 L20,8.57142857 L15.7142857,8.57142857 L15.7142857,5.71428571 L15.7142857,5.71428571 Z M20,25.7142857 L15.7142857,25.7142857 L15.7142857,22.8571429 L20,22.8571429 L20,25.7142857 L20,25.7142857 Z M24.2857143,20 L18.5714286,20 L18.5714286,17.1428571 L24.2857143,17.1428571 L24.2857143,20 L24.2857143,20 Z M28.5714286,14.2857143 L20,14.2857143 L20,11.4285714 L28.5714286,11.4285714 L28.5714286,14.2857143 L28.5714286,14.2857143 Z" id="Shape"></path>
                    </g>
                </g>
            </g>
        </g>
    </g>
</svg>