<?xml version="1.0" encoding="UTF-8" standalone="no"?>
<svg width="35px" height="30px" viewBox="0 0 35 30" version="1.1" xmlns="http://www.w3.org/2000/svg" xmlns:xlink="http://www.w3.org/1999/xlink">
    <!-- Generator: Sketch 3.8.3 (29802) - http://www.bohemiancoding.com/sketch -->
    <title>Group 6 Copy 2</title>
    <desc>Created with Sketch.</desc>
    <defs></defs>
    <g id="website" stroke="none" stroke-width="1" fill="none" fill-rule="evenodd">
        <g id="功能特性" transform="translate(-282.000000, -1050.000000)" fill="#72CD6B">
            <g id="Group-6-Copy-2" transform="translate(260.000000, 1025.000000)">
                <g id="ui-24px-glyph-1_dashboard-half" transform="translate(22.736842, 25.714286)">
                    <path d="M29.7795789,18.4985714 L29.7795789,15.6414286 L33.9702632,15.6414286 C33.6675789,11.9871429 32.2280526,8.65857143 29.9984211,6.01142857 L27.0369474,8.98857143 L25.0275789,6.96857143 L27.9890526,3.99142857 C25.3572632,1.75142857 22.0462105,0.302857143 18.4111579,0 L18.4111579,4.21285714 L15.5690526,4.21285714 L15.5690526,0 C7.29994737,0.69 0.696315789,7.32857143 0.00994736842,15.6414286 L4.20063158,15.6414286 L4.20063158,18.4985714 L0,18.4985714 C0.289894737,21.9657143 1.62568421,25.2871429 3.83684211,27.98 C4.10684211,28.3085714 4.50757895,28.4985714 4.93247368,28.4985714 L29.0491579,28.4985714 C29.4726316,28.4985714 29.8747895,28.3085714 30.1447895,27.98 C32.3559474,25.2885714 33.6917368,21.9657143 33.9816316,18.4985714 L29.7795789,18.4985714 L29.7795789,18.4985714 Z M16.9901053,21.3557143 C14.6396842,21.3557143 12.7269474,19.4328571 12.7269474,17.07 C12.7269474,16.41 12.8875263,15.7928571 13.1546842,15.2342857 L7.45910526,9.50857143 L9.46847368,7.48857143 L15.1640526,13.2142857 C15.7196842,12.9457143 16.3335789,12.7842857 16.9901053,12.7842857 C19.3405263,12.7842857 21.2532632,14.7071429 21.2532632,17.07 C21.2532632,19.4328571 19.3405263,21.3557143 16.9901053,21.3557143 L16.9901053,21.3557143 Z" id="Shape"></path>
                </g>
            </g>
        </g>
    </g>
</svg>