<?xml version="1.0" encoding="UTF-8" standalone="no"?>
<svg width="33px" height="32px" viewBox="0 0 33 32" version="1.1" xmlns="http://www.w3.org/2000/svg" xmlns:xlink="http://www.w3.org/1999/xlink">
    <!-- Generator: Sketch 3.8.3 (29802) - http://www.bohemiancoding.com/sketch -->
    <title>Group 5 Copy</title>
    <desc>Created with Sketch.</desc>
    <defs></defs>
    <g id="website" stroke="none" stroke-width="1" fill="none" fill-rule="evenodd">
        <g id="功能特性" transform="translate(-703.000000, -694.000000)" fill="#E5CD5E">
            <g id="Group-5-Copy" transform="translate(679.000000, 670.000000)">
                <g id="ui-24px-glyph-3_security" transform="translate(24.589286, 24.285714)">
                    <path d="M30.375,4.28678571 C25.808625,4.28678571 20.4452679,2.69964286 16.7134821,0.241071429 C16.2274821,-0.0803571429 15.5953929,-0.0803571429 15.1093929,0.241071429 C11.3761607,2.69964286 6.01280357,4.28678571 1.44642857,4.28678571 C0.648,4.28678571 0,4.92535714 0,5.71535714 C0,17.6782143 5.73508929,27.2482143 15.3408214,31.3139286 C15.5230714,31.3910714 15.7168929,31.4296429 15.9107143,31.4296429 C16.1045357,31.4296429 16.2983571,31.3910714 16.4806071,31.3139286 C26.0863393,27.2482143 31.8214286,17.6782143 31.8214286,5.71535714 C31.8214286,4.92535714 31.1734286,4.28678571 30.375,4.28678571 L30.375,4.28678571 Z M15.9107143,28.4367857 L15.9107143,15.7153571 L4.54323214,15.7153571 C3.60305357,13.0867857 3.047625,10.1910714 2.92178571,7.09678571 C7.33917857,6.81821429 12.21075,5.3325 15.9107143,3.1225 L15.9107143,15.7153571 L27.2781964,15.7153571 C25.2098036,21.4939286 21.2755179,25.9810714 15.9107143,28.4367857 L15.9107143,28.4367857 Z" id="Shape"></path>
                </g>
            </g>
        </g>
    </g>
</svg>