<?xml version="1.0" encoding="UTF-8" standalone="no"?>
<svg width="26px" height="32px" viewBox="0 0 26 32" version="1.1" xmlns="http://www.w3.org/2000/svg" xmlns:xlink="http://www.w3.org/1999/xlink">
    <!-- Generator: Sketch 3.8.3 (29802) - http://www.bohemiancoding.com/sketch -->
    <title>Group 6 Copy</title>
    <desc>Created with Sketch.</desc>
    <defs></defs>
    <g id="website" stroke="none" stroke-width="1" fill="none" fill-rule="evenodd">
        <g id="功能特性" transform="translate(-287.000000, -694.000000)" fill="#734FE8">
            <g id="Group-6-Copy" transform="translate(260.000000, 670.000000)">
                <g id="ui-24px-glyph-1_dashboard-half" transform="translate(26.736842, 23.714286)">
                    <path d="M25.2631579,0.285714286 L1.26315789,0.285714286 C0.663157895,0.285714286 0.263157895,0.685714286 0.263157895,1.28571429 L0.263157895,31.2857143 C0.263157895,31.8857143 0.663157895,32.2857143 1.26315789,32.2857143 L25.2631579,32.2857143 C25.8631579,32.2857143 26.2631579,31.8857143 26.2631579,31.2857143 L26.2631579,1.28571429 C26.2631579,0.685714286 25.8631579,0.285714286 25.2631579,0.285714286 L25.2631579,0.285714286 Z M8.26315789,24.2857143 L6.26315789,24.2857143 C5.66315789,24.2857143 5.26315789,23.8857143 5.26315789,23.2857143 C5.26315789,22.6857143 5.66315789,22.2857143 6.26315789,22.2857143 L8.26315789,22.2857143 C8.86315789,22.2857143 9.26315789,22.6857143 9.26315789,23.2857143 C9.26315789,23.8857143 8.86315789,24.2857143 8.26315789,24.2857143 L8.26315789,24.2857143 Z M10.9631579,14.9857143 L7.96315789,17.9857143 C7.76315789,18.1857143 7.56315789,18.2857143 7.26315789,18.2857143 C6.96315789,18.2857143 6.76315789,18.1857143 6.56315789,17.9857143 L5.56315789,16.9857143 C5.16315789,16.5857143 5.16315789,15.9857143 5.56315789,15.5857143 C5.96315789,15.1857143 6.56315789,15.1857143 6.96315789,15.5857143 L7.26315789,15.8857143 L9.56315789,13.5857143 C9.96315789,13.1857143 10.5631579,13.1857143 10.9631579,13.5857143 C11.3631579,13.9857143 11.3631579,14.5857143 10.9631579,14.9857143 L10.9631579,14.9857143 Z M10.9631579,7.98571429 L7.96315789,10.9857143 C7.76315789,11.1857143 7.56315789,11.2857143 7.26315789,11.2857143 C6.96315789,11.2857143 6.76315789,11.1857143 6.56315789,10.9857143 L5.56315789,9.98571429 C5.16315789,9.58571429 5.16315789,8.98571429 5.56315789,8.58571429 C5.96315789,8.18571429 6.56315789,8.18571429 6.96315789,8.58571429 L7.26315789,8.88571429 L9.56315789,6.58571429 C9.96315789,6.18571429 10.5631579,6.18571429 10.9631579,6.58571429 C11.3631579,6.98571429 11.3631579,7.58571429 10.9631579,7.98571429 L10.9631579,7.98571429 Z M20.2631579,24.2857143 L13.2631579,24.2857143 C12.6631579,24.2857143 12.2631579,23.8857143 12.2631579,23.2857143 C12.2631579,22.6857143 12.6631579,22.2857143 13.2631579,22.2857143 L20.2631579,22.2857143 C20.8631579,22.2857143 21.2631579,22.6857143 21.2631579,23.2857143 C21.2631579,23.8857143 20.8631579,24.2857143 20.2631579,24.2857143 L20.2631579,24.2857143 Z M20.2631579,17.2857143 L13.2631579,17.2857143 C12.6631579,17.2857143 12.2631579,16.8857143 12.2631579,16.2857143 C12.2631579,15.6857143 12.6631579,15.2857143 13.2631579,15.2857143 L20.2631579,15.2857143 C20.8631579,15.2857143 21.2631579,15.6857143 21.2631579,16.2857143 C21.2631579,16.8857143 20.8631579,17.2857143 20.2631579,17.2857143 L20.2631579,17.2857143 Z M20.2631579,10.2857143 L13.2631579,10.2857143 C12.6631579,10.2857143 12.2631579,9.88571429 12.2631579,9.28571429 C12.2631579,8.68571429 12.6631579,8.28571429 13.2631579,8.28571429 L20.2631579,8.28571429 C20.8631579,8.28571429 21.2631579,8.68571429 21.2631579,9.28571429 C21.2631579,9.88571429 20.8631579,10.2857143 20.2631579,10.2857143 L20.2631579,10.2857143 Z" id="Shape"></path>
                </g>
            </g>
        </g>
    </g>
</svg>