<?xml version="1.0" encoding="UTF-8" standalone="no"?>
<svg width="36px" height="30px" viewBox="0 0 36 30" version="1.1" xmlns="http://www.w3.org/2000/svg" xmlns:xlink="http://www.w3.org/1999/xlink">
    <!-- Generator: Sketch 3.8.3 (29802) - http://www.bohemiancoding.com/sketch -->
    <title>Group 10 Copy</title>
    <desc>Created with Sketch.</desc>
    <defs></defs>
    <g id="website" stroke="none" stroke-width="1" fill="none" fill-rule="evenodd">
        <g id="功能特性" transform="translate(-702.000000, -384.000000)" fill="#43E2ED">
            <g id="Group-10-Copy" transform="translate(680.000000, 359.000000)">
                <g id="design-24px-glyph_vector" transform="translate(22.857143, 25.714286)">
                    <path d="M13.35,7.67 C7.31,9.33714286 2.85714286,14.8657143 2.85714286,21.4285714 L5.71428571,21.4285714 C5.71428571,15.1271429 10.8414286,10 17.1428571,10 C15.4842857,10 14.0628571,9.04857143 13.35,7.67 L13.35,7.67 Z" id="Shape"></path>
                    <path d="M20.9357143,7.67 C20.2228571,9.04857143 18.8014286,10 17.1428571,10 C23.4442857,10 28.5714286,15.1271429 28.5714286,21.4285714 L31.4285714,21.4285714 C31.4285714,14.8657143 26.9757143,9.33714286 20.9357143,7.67 L20.9357143,7.67 Z" id="Shape"></path>
                    <path d="M4.28571429,7.14285714 L13.12,7.14285714 C12.96,6.69428571 12.8571429,6.21857143 12.8571429,5.71428571 C12.8571429,5.21 12.96,4.73428571 13.12,4.28571429 L4.28571429,4.28571429 C3.49714286,4.28571429 2.85714286,4.92571429 2.85714286,5.71428571 C2.85714286,6.50285714 3.49714286,7.14285714 4.28571429,7.14285714 L4.28571429,7.14285714 Z" id="Shape"></path>
                    <path d="M30,7.14285714 C30.7885714,7.14285714 31.4285714,6.50285714 31.4285714,5.71428571 C31.4285714,4.92571429 30.7885714,4.28571429 30,4.28571429 L21.1657143,4.28571429 C21.3257143,4.73428571 21.4285714,5.21 21.4285714,5.71428571 C21.4285714,6.21857143 21.3257143,6.69428571 21.1657143,7.14285714 L30,7.14285714 L30,7.14285714 Z" id="Shape"></path>
                    <ellipse id="Oval" cx="2.85714286" cy="5.71428571" rx="2.85714286" ry="2.85714286"></ellipse>
                    <rect id="Rectangle-path" x="0" y="2.85714286" width="5.71428571" height="5.71428571"></rect>
                    <rect id="Rectangle-path" x="28.5714286" y="2.85714286" width="5.71428571" height="5.71428571"></rect>
                    <path d="M17.1428571,11.4285714 C13.9914286,11.4285714 11.4285714,8.86571429 11.4285714,5.71428571 C11.4285714,2.56285714 13.9914286,0 17.1428571,0 C20.2942857,0 22.8571429,2.56285714 22.8571429,5.71428571 C22.8571429,8.86571429 20.2942857,11.4285714 17.1428571,11.4285714 L17.1428571,11.4285714 Z M17.1428571,2.85714286 C15.5671429,2.85714286 14.2857143,4.13857143 14.2857143,5.71428571 C14.2857143,7.29 15.5671429,8.57142857 17.1428571,8.57142857 C18.7185714,8.57142857 20,7.29 20,5.71428571 C20,4.13857143 18.7185714,2.85714286 17.1428571,2.85714286 L17.1428571,2.85714286 Z" id="Shape"></path>
                    <path d="M7.14285714,28.5714286 L1.42857143,28.5714286 C0.64,28.5714286 0,27.9314286 0,27.1428571 L0,21.4285714 C0,20.64 0.64,20 1.42857143,20 L7.14285714,20 C7.93142857,20 8.57142857,20.64 8.57142857,21.4285714 L8.57142857,27.1428571 C8.57142857,27.9314286 7.93142857,28.5714286 7.14285714,28.5714286 L7.14285714,28.5714286 Z" id="Shape"></path>
                    <path d="M32.8571429,28.5714286 L27.1428571,28.5714286 C26.3542857,28.5714286 25.7142857,27.9314286 25.7142857,27.1428571 L25.7142857,21.4285714 C25.7142857,20.64 26.3542857,20 27.1428571,20 L32.8571429,20 C33.6457143,20 34.2857143,20.64 34.2857143,21.4285714 L34.2857143,27.1428571 C34.2857143,27.9314286 33.6457143,28.5714286 32.8571429,28.5714286 L32.8571429,28.5714286 Z" id="Shape"></path>
                </g>
            </g>
        </g>
    </g>
</svg>