<?xml version="1.0" encoding="UTF-8" standalone="no"?>
<svg width="32px" height="32px" viewBox="0 0 32 32" version="1.1" xmlns="http://www.w3.org/2000/svg" xmlns:xlink="http://www.w3.org/1999/xlink">
    <!-- Generator: Sketch 3.8.3 (29802) - http://www.bohemiancoding.com/sketch -->
    <title>Group 5 Copy 2</title>
    <desc>Created with Sketch.</desc>
    <defs></defs>
    <g id="website" stroke="none" stroke-width="1" fill="none" fill-rule="evenodd">
        <g id="功能特性" transform="translate(-705.000000, -1048.000000)" fill="#F142AF">
            <g id="Group-5-Copy-2" transform="translate(679.000000, 1025.000000)">
                <g id="ui-24px-glyph-3_security" transform="translate(25.589286, 23.285714)">
                    <path d="M27.9107143,7.01428571 C26.5107143,6.31428571 25.0107143,6.01428571 23.4107143,6.01428571 C21.3107143,6.01428571 19.3107143,6.61428571 17.6107143,7.11428571 C16.4107143,7.51428571 15.3107143,7.81428571 14.5107143,7.81428571 C13.9107143,7.81428571 13.5107143,7.61428571 13.2107143,7.21428571 C13.0107143,7.01428571 13.2107143,6.31428571 13.4107143,5.61428571 C13.7107143,4.51428571 14.2107143,3.01428571 13.2107143,1.71428571 C12.6107143,0.914285714 11.6107143,0.514285714 10.4107143,0.514285714 C9.31071429,0.514285714 8.21071429,0.914285714 7.21071429,1.51428571 C3.01071429,4.61428571 0.410714286,9.51428571 0.410714286,14.7142857 C0.410714286,23.6142857 7.61071429,30.8142857 16.5107143,30.8142857 C23.7107143,30.8142857 30.0107143,26.0142857 32.0107143,19.1142857 C32.2107143,18.2142857 34.0107143,10.0142857 27.9107143,7.01428571 L27.9107143,7.01428571 Z M5.41071429,13.7142857 C5.41071429,12.6142857 6.31071429,11.7142857 7.41071429,11.7142857 C8.51071429,11.7142857 9.41071429,12.6142857 9.41071429,13.7142857 C9.41071429,14.8142857 8.51071429,15.7142857 7.41071429,15.7142857 C6.31071429,15.7142857 5.41071429,14.8142857 5.41071429,13.7142857 L5.41071429,13.7142857 Z M9.41071429,22.7142857 C8.31071429,22.7142857 7.41071429,21.8142857 7.41071429,20.7142857 C7.41071429,19.6142857 8.31071429,18.7142857 9.41071429,18.7142857 C10.5107143,18.7142857 11.4107143,19.6142857 11.4107143,20.7142857 C11.4107143,21.8142857 10.5107143,22.7142857 9.41071429,22.7142857 L9.41071429,22.7142857 Z M16.4107143,25.7142857 C15.3107143,25.7142857 14.4107143,24.8142857 14.4107143,23.7142857 C14.4107143,22.6142857 15.3107143,21.7142857 16.4107143,21.7142857 C17.5107143,21.7142857 18.4107143,22.6142857 18.4107143,23.7142857 C18.4107143,24.8142857 17.5107143,25.7142857 16.4107143,25.7142857 L16.4107143,25.7142857 Z M23.4107143,17.7142857 C21.2107143,17.7142857 19.4107143,15.9142857 19.4107143,13.7142857 C19.4107143,11.5142857 21.2107143,9.71428571 23.4107143,9.71428571 C25.6107143,9.71428571 27.4107143,11.5142857 27.4107143,13.7142857 C27.4107143,15.9142857 25.6107143,17.7142857 23.4107143,17.7142857 L23.4107143,17.7142857 Z" id="Shape"></path>
                </g>
            </g>
        </g>
    </g>
</svg>