<?xml version="1.0" encoding="UTF-8" standalone="no"?>
<svg width="40px" height="40px" viewBox="0 0 40 40" version="1.1" xmlns="http://www.w3.org/2000/svg" xmlns:xlink="http://www.w3.org/1999/xlink">
    <!-- Generator: Sketch 3.8.3 (29802) - http://www.bohemiancoding.com/sketch -->
    <title>Group 3</title>
    <desc>Created with Sketch.</desc>
    <defs></defs>
    <g id="website" stroke="none" stroke-width="1" fill="none" fill-rule="evenodd">
        <g id="功能特性" transform="translate(-492.000000, -1693.000000)">
            <g id="Group-3" transform="translate(492.000000, 1693.000000)">
                <circle id="Oval-44" fill="#E5E5E5" cx="20" cy="20" r="20"></circle>
                <path d="M10,23 C11.6568542,23 13,21.6568542 13,20 C13,18.3431458 11.6568542,17 10,17 C8.34314575,17 7,18.3431458 7,20 C7,21.6568542 8.34314575,23 10,23 Z M20,23 C21.6568542,23 23,21.6568542 23,20 C23,18.3431458 21.6568542,17 20,17 C18.3431458,17 17,18.3431458 17,20 C17,21.6568542 18.3431458,23 20,23 Z M30,23 C31.6568542,23 33,21.6568542 33,20 C33,18.3431458 31.6568542,17 30,17 C28.3431458,17 27,18.3431458 27,20 C27,21.6568542 28.3431458,23 30,23 Z" id="Combined-Shape" fill="#FFFFFF"></path>
            </g>
        </g>
    </g>
</svg>