<?xml version="1.0" encoding="UTF-8" standalone="no"?>
<svg width="66px" height="24px" viewBox="0 0 66 24" version="1.1" xmlns="http://www.w3.org/2000/svg" xmlns:xlink="http://www.w3.org/1999/xlink">
    <!-- Generator: Sketch 3.8.3 (29802) - http://www.bohemiancoding.com/sketch -->
    <title>logo</title>
    <desc>Created with Sketch.</desc>
    <defs></defs>
    <g id="Symbols" stroke="none" stroke-width="1" fill="none" fill-rule="evenodd">
        <g id="nav" transform="translate(-74.000000, -30.000000)" fill="#525659">
            <g id="logo">
                <path d="M107.721359,51.8181818 L107.721359,33.2290909 L115.439031,33.2290909 C116.255996,33.2290909 117.007766,33.399271 117.694364,33.7396364 C118.380962,34.0800017 118.971949,34.5338153 119.467343,35.1010909 C119.962736,35.6683665 120.349485,36.305451 120.627601,37.0123636 C120.905716,37.7192763 121.044772,38.4392691 121.044772,39.1723636 C121.044772,39.9403675 120.914407,40.6821782 120.653674,41.3978182 C120.39294,42.1134581 120.023574,42.7505427 119.545562,43.3090909 C119.067551,43.8676392 118.493946,44.3127256 117.82473,44.6443636 C117.155514,44.9760017 116.412435,45.1418182 115.59547,45.1418182 L110.067948,45.1418182 L110.067948,51.8181818 L107.721359,51.8181818 Z M110.067948,43.0472727 L115.465104,43.0472727 C115.951806,43.0472727 116.390701,42.9469101 116.781801,42.7461818 C117.172902,42.5454535 117.507505,42.2661836 117.78562,41.9083636 C118.063736,41.5505437 118.281011,41.1360024 118.437451,40.6647273 C118.593891,40.1934522 118.67211,39.6960026 118.67211,39.1723636 C118.67211,38.63127 118.580854,38.1250933 118.398341,37.6538182 C118.215827,37.1825431 117.97248,36.7723654 117.668291,36.4232727 C117.364102,36.0741801 117.007771,35.8036373 116.599289,35.6116364 C116.190806,35.4196354 115.760603,35.3236364 115.308665,35.3236364 L110.067948,35.3236364 L110.067948,43.0472727 Z M123.817224,51.8181818 L123.817224,38.1512727 L126.111667,38.1512727 L126.111667,51.8181818 L123.817224,51.8181818 Z M123.817224,35.5854545 L123.817224,32.7054545 L126.111667,32.7054545 L126.111667,35.5854545 L123.817224,35.5854545 Z M130.083487,32.7054545 L132.37793,32.7054545 L132.37793,48.2836364 C132.37793,48.7898207 132.51264,49.1869077 132.782065,49.4749091 C133.051489,49.7629105 133.429547,49.9069091 133.91625,49.9069091 C134.107454,49.9069091 134.33342,49.8763639 134.594153,49.8152727 C134.854887,49.7541815 135.098234,49.6800004 135.324203,49.5927273 L135.689228,51.4516364 C135.306819,51.6087281 134.854888,51.7396358 134.333421,51.8443636 C133.811954,51.9490914 133.351332,52.0014545 132.951541,52.0014545 C132.065047,52.0014545 131.365423,51.7483662 130.852647,51.2421818 C130.339871,50.7359975 130.083487,50.0290954 130.083487,49.1214545 L130.083487,32.7054545 Z M137.705557,51.8181818 L137.705557,38.1512727 L140,38.1512727 L140,51.8181818 L137.705557,51.8181818 Z M137.705557,35.5854545 L137.705557,32.7054545 L140,32.7054545 L140,35.5854545 L137.705557,35.5854545 Z M74,34.3740632 C74,31.9583348 75.9558739,30 78.3559195,30 L93.5445282,30 C95.9502361,30 97.9004477,31.9640207 97.9004477,34.3740632 L97.9004477,49.6259368 C97.9004477,52.0416652 95.9445738,54 93.5445282,54 L78.3559195,54 C75.9502116,54 74,52.0359793 74,49.6259368 L74,34.3740632 Z M76.172768,34.3740632 L76.172768,49.6259368 C76.172768,50.8333963 77.1525888,51.8181818 78.3559195,51.8181818 L93.5445282,51.8181818 C94.7469791,51.8181818 95.7276797,50.8342797 95.7276797,49.6259368 L95.7276797,34.3740632 C95.7276797,33.1666037 94.7478589,32.1818182 93.5445282,32.1818182 L78.3559195,32.1818182 C77.1534686,32.1818182 76.172768,33.1657203 76.172768,34.3740632 Z M79.960134,41.2082679 C79.960134,40.4619573 80.4795047,40.1679393 81.1204336,40.5517118 L86.0215878,43.486402 C86.6624035,43.8701067 86.6625167,44.4921472 86.0215878,44.8759196 L81.1204336,47.8106099 C80.4796178,48.1943146 79.960134,47.910928 79.960134,47.1540537 L79.960134,41.2082679 Z"></path>
            </g>
        </g>
    </g>
</svg>