<?xml version="1.0" encoding="UTF-8" standalone="no"?>
<svg width="66px" height="24px" viewBox="0 0 66 24" version="1.1" xmlns="http://www.w3.org/2000/svg" xmlns:xlink="http://www.w3.org/1999/xlink">
    <!-- Generator: Sketch 3.8.3 (29802) - http://www.bohemiancoding.com/sketch -->
    <title>Combined Shape</title>
    <desc>Created with Sketch.</desc>
    <defs></defs>
    <g id="Symbols" stroke="none" stroke-width="1" fill="none" fill-rule="evenodd">
        <path d="M33.721359,21.8181818 L33.721359,3.22909091 L41.4390308,3.22909091 C42.2559957,3.22909091 43.0077659,3.39927103 43.694364,3.73963636 C44.3809621,4.0800017 44.9719491,4.53381535 45.4673426,5.10109091 C45.9627362,5.66836647 46.349485,6.30545101 46.6276007,7.01236364 C46.9057164,7.71927626 47.0447722,8.43926906 47.0447722,9.17236364 C47.0447722,9.94036748 46.9144074,10.6821782 46.6536739,11.3978182 C46.3929405,12.1134581 46.0235736,12.7505427 45.5455623,13.3090909 C45.0675509,13.8676392 44.4939459,14.3127256 43.82473,14.6443636 C43.1555142,14.9760017 42.4124349,15.1418182 41.5954701,15.1418182 L36.0679484,15.1418182 L36.0679484,21.8181818 L33.721359,21.8181818 Z M36.0679484,13.0472727 L41.465104,13.0472727 C41.9518065,13.0472727 42.3907012,12.9469101 42.7818014,12.7461818 C43.1729016,12.5454535 43.5075045,12.2661836 43.7856202,11.9083636 C44.0637359,11.5505437 44.2810105,11.1360024 44.4374506,10.6647273 C44.5938907,10.1934522 44.6721096,9.69600262 44.6721096,9.17236364 C44.6721096,8.63127002 44.5808542,8.12509327 44.3983408,7.65381818 C44.2158274,7.1825431 43.9724798,6.77236538 43.6682907,6.42327273 C43.3641017,6.07418007 43.0077713,5.80363732 42.5992889,5.61163636 C42.1908065,5.4196354 41.7606027,5.32363636 41.3086647,5.32363636 L36.0679484,5.32363636 L36.0679484,13.0472727 Z M49.8172241,21.8181818 L49.8172241,8.15127273 L52.1116671,8.15127273 L52.1116671,21.8181818 L49.8172241,21.8181818 Z M49.8172241,5.58545455 L49.8172241,2.70545455 L52.1116671,2.70545455 L52.1116671,5.58545455 L49.8172241,5.58545455 Z M56.083487,2.70545455 L58.3779299,2.70545455 L58.3779299,18.2836364 C58.3779299,18.7898207 58.5126402,19.1869077 58.7820648,19.4749091 C59.0514894,19.7629105 59.4295472,19.9069091 59.9162497,19.9069091 C60.1074542,19.9069091 60.3334198,19.8763639 60.5941533,19.8152727 C60.8548867,19.7541815 61.0982343,19.6800004 61.3242033,19.5927273 L61.6892283,21.4516364 C61.3068193,21.6087281 60.854888,21.7396358 60.3334211,21.8443636 C59.8119542,21.9490914 59.351332,22.0014545 58.9515407,22.0014545 C58.0650469,22.0014545 57.3654226,21.7483662 56.8526468,21.2421818 C56.339871,20.7359975 56.083487,20.0290954 56.083487,19.1214545 L56.083487,2.70545455 Z M63.705557,21.8181818 L63.705557,8.15127273 L66,8.15127273 L66,21.8181818 L63.705557,21.8181818 Z M63.705557,5.58545455 L63.705557,2.70545455 L66,2.70545455 L66,5.58545455 L63.705557,5.58545455 Z M0,4.37406318 C0,1.95833479 1.95587395,0 4.35591951,0 L19.5445282,0 C21.9502361,0 23.9004477,1.96402073 23.9004477,4.37406318 L23.9004477,19.6259368 C23.9004477,22.0416652 21.9445738,24 19.5445282,24 L4.35591951,24 C1.95021159,24 0,22.0359793 0,19.6259368 L0,4.37406318 Z M2.17276797,4.37406318 L2.17276797,19.6259368 C2.17276797,20.8333963 3.15258883,21.8181818 4.35591951,21.8181818 L19.5445282,21.8181818 C20.7469791,21.8181818 21.7276797,20.8342797 21.7276797,19.6259368 L21.7276797,4.37406318 C21.7276797,3.16660373 20.7478589,2.18181818 19.5445282,2.18181818 L4.35591951,2.18181818 C3.15346862,2.18181818 2.17276797,3.16572028 2.17276797,4.37406318 Z M5.96013397,11.2082679 C5.96013397,10.4619573 6.47950467,10.1679393 7.12043359,10.5517118 L12.0215878,13.486402 C12.6624035,13.8701067 12.6625167,14.4921472 12.0215878,14.8759196 L7.12043359,17.8106099 C6.47961781,18.1943146 5.96013397,17.910928 5.96013397,17.1540537 L5.96013397,11.2082679 Z" id="Combined-Shape" fill="#FFFFFF"></path>
    </g>
</svg>