<?xml version="1.0" encoding="UTF-8" standalone="no"?>
<svg width="156px" height="120px" viewBox="0 0 156 120" version="1.1" xmlns="http://www.w3.org/2000/svg" xmlns:xlink="http://www.w3.org/1999/xlink">
    <!-- Generator: Sketch 3.8.3 (29802) - http://www.bohemiancoding.com/sketch -->
    <title>Group 6</title>
    <desc>Created with Sketch.</desc>
    <defs>
        <path d="M98.5870968,34.4761905 C95.9225806,14.6666667 79.1741935,0 59,0 C41.6806452,0 26.6451613,10.8571429 21.1258065,27.2380952 C8.75483871,29.9047619 0,40.5714286 0,53.3333333 C0,67.2380952 10.8483871,78.8571429 24.7419355,80 L97.0645161,80 L97.2548387,80 C108.864516,78.8571429 118,68.952381 118,57.1428571 C118,45.9047619 109.625806,36.1904762 98.5870968,34.4761905 L98.5870968,34.4761905 Z M37.683871,44 C37.683871,32.1904762 47.2,22.6666667 59,22.6666667 C65.2806452,22.6666667 70.9903226,25.3333333 74.9870968,29.7142857 L75.3677419,23.8095238 C75.3677419,22.6666667 76.3193548,21.9047619 77.2709677,21.9047619 C78.4129032,21.9047619 79.1741935,22.8571429 79.1741935,23.8095238 L78.6032258,35.4285714 C78.6032258,35.6190476 78.6032258,35.6190476 78.4129032,35.8095238 C78.4129032,35.8095238 78.4129032,35.8095238 78.4129032,36 C78.4129032,36.1904762 78.2225806,36.3809524 78.0322581,36.5714286 L78.0322581,36.5714286 C78.0322581,36.5714286 78.0322581,36.7619048 77.8419355,36.7619048 C77.4612903,37.1428571 77.0806452,37.3333333 76.5096774,37.3333333 L76.5096774,37.3333333 L64.7096774,36.7619048 C63.5677419,36.7619048 62.8064516,35.8095238 62.8064516,34.8571429 C62.8064516,33.9047619 63.7580645,32.952381 64.7096774,32.952381 L72.7032258,33.3333333 C69.4677419,28.952381 64.3290323,26.2857143 58.8096774,26.2857143 C49.1032258,26.2857143 41.3,34.0952381 41.3,43.8095238 C41.3,44.952381 40.5387097,45.7142857 39.3967742,45.7142857 C38.2548387,45.7142857 37.683871,44.952381 37.683871,44 L37.683871,44 Z M59,66.0952381 C52.9096774,66.0952381 47.3903226,63.6190476 43.3935484,59.2380952 L43.3935484,64.952381 C43.3935484,66.0952381 42.4419355,66.8571429 41.4903226,66.8571429 L41.4903226,66.8571429 C40.3483871,66.8571429 39.5870968,65.9047619 39.5870968,64.952381 L39.5870968,53.3333333 L39.5870968,52.952381 L39.5870968,52.7619048 C39.5870968,52.5714286 39.7774194,52.3809524 39.7774194,52.3809524 C39.7774194,52.3809524 39.7774194,52.1904762 39.9677419,52.1904762 C40.1580645,52 40.3483871,52 40.5387097,51.8095238 L40.5387097,51.8095238 L40.5387097,51.8095238 C40.7290323,51.8095238 40.9193548,51.6190476 41.1096774,51.6190476 L41.3,51.6190476 L41.3,51.6190476 L41.3,51.6190476 L52.9096774,51.6190476 C54.0516129,51.6190476 54.8129032,52.5714286 54.8129032,53.5238095 C54.8129032,54.4761905 53.8612903,55.4285714 52.9096774,55.4285714 L44.7258065,55.4285714 C47.9612903,59.8095238 53.1,62.4761905 58.8096774,62.4761905 C68.516129,62.4761905 76.3193548,54.6666667 76.3193548,44.952381 C76.3193548,43.8095238 77.0806452,43.047619 78.2225806,43.047619 C79.3645161,43.047619 80.1258065,43.8095238 80.1258065,44.952381 C80.316129,56.3809524 70.8,66.0952381 59,66.0952381 L59,66.0952381 Z" id="path-1"></path>
        <filter x="-50%" y="-50%" width="200%" height="200%" filterUnits="objectBoundingBox" id="filter-2">
            <feOffset dx="0" dy="9" in="SourceAlpha" result="shadowOffsetOuter1"></feOffset>
            <feGaussianBlur stdDeviation="10" in="shadowOffsetOuter1" result="shadowBlurOuter1"></feGaussianBlur>
            <feComposite in="shadowBlurOuter1" in2="SourceAlpha" operator="out" result="shadowBlurOuter1"></feComposite>
            <feColorMatrix values="0 0 0 0 0   0 0 0 0 0   0 0 0 0 0  0 0 0 0.06 0" type="matrix" in="shadowBlurOuter1"></feColorMatrix>
        </filter>
        <mask id="mask-3" maskContentUnits="userSpaceOnUse" maskUnits="objectBoundingBox" x="0" y="0" width="118" height="80" fill="white">
            <use xlink:href="#path-1"></use>
        </mask>
    </defs>
    <g id="website" stroke="none" stroke-width="1" fill="none" fill-rule="evenodd">
        <g id="播放器-SDK" transform="translate(-440.000000, -844.000000)">
            <g id="Group-6" transform="translate(448.000000, 855.000000)">
                <g id="design-32px-glyph_window-dev" transform="translate(79.000000, 88.000000) rotate(-25.000000) translate(-79.000000, -88.000000) translate(66.000000, 77.000000)" fill="#E6E8EA">
                    <g id="Group" transform="translate(-0.000000, 0.000000)">
                        <path d="M26,3.14285714 L26,0.785714286 C26,0.352 25.6368125,-2.27373675e-13 25.1875,-2.27373675e-13 L5.6875,-2.27373675e-13 L5.6875,3.14285714 L26,3.14285714 L26,3.14285714 Z" id="Shape"></path>
                        <path d="M4.0625,0 L0.8125,0 C0.3631875,0 0,0.352 0,0.785714286 L0,3.14285714 L4.0625,3.14285714 L4.0625,0 L4.0625,0 Z" id="Shape"></path>
                        <path d="M-1.70530257e-13,4.71428571 L-1.70530257e-13,21.2142857 C-1.70530257e-13,21.6487857 0.364,22 0.8125,22 L25.1875,22 C25.636,22 26,21.6487857 26,21.2142857 L26,4.71428571 L-1.70530257e-13,4.71428571 L-1.70530257e-13,4.71428571 Z M11.711375,15.7142857 L10.5625,16.8252857 L7.5505625,13.9126429 C7.232875,13.6054286 7.232875,13.1088571 7.5505625,12.8016429 L10.5625,9.889 L11.711375,11 L9.273875,13.3571429 L11.711375,15.7142857 L11.711375,15.7142857 Z M18.4494375,13.9126429 L15.4375,16.8252857 L14.288625,15.7142857 L16.726125,13.3571429 L14.288625,11 L15.4375,9.889 L18.4494375,12.8016429 C18.767125,13.1088571 18.767125,13.6054286 18.4494375,13.9126429 L18.4494375,13.9126429 Z" id="Shape"></path>
                    </g>
                </g>
                <g id="design-32px-glyph_photo-editor" transform="translate(18.000000, 84.500000) rotate(-43.000000) translate(-18.000000, -84.500000) translate(5.000000, 73.000000)" fill="#E6E8EA">
                    <g id="Group" transform="translate(-0.000000, 0.000000)">
                        <ellipse id="Oval" cx="13" cy="7.13793103" rx="7.3125" ry="7.13793103"></ellipse>
                        <path d="M13,15.862069 C8.8505625,15.862069 5.3625,13.0830345 4.3606875,9.33482759 C1.794,10.4427931 2.27373675e-13,12.9458276 2.27373675e-13,15.862069 C2.27373675e-13,19.8045862 3.2735625,23 7.3125,23 C11.3514375,23 14.625,19.8045862 14.625,15.862069 C14.625,15.8113103 14.6185,15.7621379 14.616875,15.7113793 C14.092,15.8057586 13.5525,15.862069 13,15.862069 L13,15.862069 Z" id="Shape"></path>
                        <path d="M21.6393125,9.33482759 C20.912125,12.0559655 18.8751875,14.26 16.222375,15.2664483 C16.2361875,15.4631379 16.25,15.6614138 16.25,15.862069 C16.25,17.9915517 15.461875,19.9433793 14.158625,21.4597931 C15.405,22.4210345 16.9755625,23 18.6875,23 C22.7264375,23 26,19.8045862 26,15.862069 C26,12.9458276 24.206,10.4427931 21.6393125,9.33482759 L21.6393125,9.33482759 Z" id="Shape"></path>
                    </g>
                </g>
                <g id="design-32px-glyph-2_android" transform="translate(22.500000, 23.500000) rotate(-22.000000) translate(-22.500000, -23.500000) translate(13.000000, 11.000000)" fill="#E6E8EA">
                    <g id="Group">
                        <path d="M3.16666667,19.3548387 C3.16666667,19.8 3.52133333,20.1612903 3.95833333,20.1612903 L5.54166667,20.1612903 L5.54166667,23.7903226 C5.54166667,24.4580645 6.07366667,25 6.72916667,25 C7.38466667,25 7.91666667,24.4580645 7.91666667,23.7903226 L7.91666667,20.1612903 L11.0833333,20.1612903 L11.0833333,23.7903226 C11.0833333,24.4580645 11.6153333,25 12.2708333,25 C12.9263333,25 13.4583333,24.4580645 13.4583333,23.7903226 L13.4583333,20.1612903 L15.0416667,20.1612903 C15.4786667,20.1612903 15.8333333,19.8 15.8333333,19.3548387 L15.8333333,8.87096774 L3.16666667,8.87096774 L3.16666667,19.3548387 Z M1.1875,8.87096774 C0.532,8.87096774 5.68434189e-14,9.41290323 5.68434189e-14,10.0806452 L5.68434189e-14,15.7258065 C5.68434189e-14,16.3935484 0.532,16.9354839 1.1875,16.9354839 C1.843,16.9354839 2.375,16.3935484 2.375,15.7258065 L2.375,10.0806452 C2.375,9.41290323 1.843,8.87096774 1.1875,8.87096774 Z M17.8125,8.87096774 C17.157,8.87096774 16.625,9.41290323 16.625,10.0806452 L16.625,15.7258065 C16.625,16.3935484 17.157,16.9354839 17.8125,16.9354839 C18.468,16.9354839 19,16.3935484 19,15.7258065 L19,10.0806452 C19,9.41290323 18.468,8.87096774 17.8125,8.87096774 Z M12.7877917,2.55806452 L13.7876667,1.02983871 C13.9087917,0.84516129 13.8597083,0.594354839 13.677625,0.470967742 C13.49475,0.347580645 13.2485417,0.397580645 13.129,0.583064516 L12.0847917,2.17903226 C11.2947083,1.81774194 10.4215,1.61290323 9.5,1.61290323 C8.5785,1.61290323 7.70529167,1.81774194 6.91520833,2.17822581 L5.871,0.582258065 C5.749875,0.397580645 5.50445833,0.346774194 5.322375,0.47016129 C5.14029167,0.593548387 5.09120833,0.844354839 5.21233333,1.02903226 L6.21220833,2.55725806 C4.38820833,3.69032258 3.16666667,5.72983871 3.16666667,8.06451613 L15.8333333,8.06451613 C15.8333333,5.72983871 14.6117917,3.69032258 12.7877917,2.55806452 Z M7.125,5.64516129 C6.688,5.64516129 6.33333333,5.28387097 6.33333333,4.83870968 C6.33333333,4.39354839 6.688,4.03225806 7.125,4.03225806 C7.562,4.03225806 7.91666667,4.39354839 7.91666667,4.83870968 C7.91666667,5.28387097 7.562,5.64516129 7.125,5.64516129 Z M11.875,5.64516129 C11.438,5.64516129 11.0833333,5.28387097 11.0833333,4.83870968 C11.0833333,4.39354839 11.438,4.03225806 11.875,4.03225806 C12.312,4.03225806 12.6666667,4.39354839 12.6666667,4.83870968 C12.6666667,5.28387097 12.312,5.64516129 11.875,5.64516129 Z" id="Combined-Shape"></path>
                    </g>
                </g>
                <g id="design-32px-glyph-2_apple" transform="translate(121.000000, 27.000000) rotate(43.000000) translate(-121.000000, -27.000000) translate(111.000000, 14.000000)" fill="#E6E8EA">
                    <g id="Group" transform="translate(-0.000000, -0.000000)">
                        <path d="M19.9176923,18.7856019 C19.3753846,20.0077222 19.1161538,20.5522778 18.4176923,21.632 C17.4446154,23.1396991 16.0715385,25.0174769 14.37,25.033125 C12.8584615,25.0472083 12.47,24.0332083 10.4184615,24.0449444 C8.36692308,24.0566806 7.93923077,25.0519028 6.42769231,25.037037 C4.72615385,25.0213889 3.42615385,23.325912 2.45230769,21.8174306 C-0.270769231,17.6018194 -0.555384615,12.653875 1.12384615,10.0242037 C2.31769231,8.15425 4.20076923,7.06122685 5.97153846,7.06122685 C7.77384615,7.06122685 8.90769231,8.06662037 10.3984615,8.06662037 C11.8446154,8.06662037 12.7253846,7.05966204 14.81,7.05966204 C16.3853846,7.05966204 18.0546154,7.9320463 19.2446154,9.43974537 C15.3476923,11.6124907 15.9807692,17.2716435 19.9176923,18.7856019 L19.9176923,18.7856019 L19.9176923,18.7856019 Z" id="Shape"></path>
                        <path d="M13.4492308,4.42138426 C14.2069231,3.4332037 14.7815385,2.03738889 14.5723077,0.611060185 C13.3353846,0.697125 11.8892308,1.49752778 11.0438462,2.54125926 C10.2769231,3.48797222 9.64384615,4.89239352 9.89,6.25769444 C11.24,6.30072685 12.6376923,5.48076389 13.4492308,4.42138426 L13.4492308,4.42138426 L13.4492308,4.42138426 Z" id="Shape"></path>
                    </g>
                </g>
                <g id="arrows-64px-glyph-3_cloud-refresh" transform="translate(11.000000, 0.000000)">
                    <g id="Shape">
                        <use fill="black" fill-opacity="1" filter="url(#filter-2)" xlink:href="#path-1"></use>
                        <use stroke="#D9DCDF" mask="url(#mask-3)" stroke-width="2" fill="#FFFFFF" fill-rule="evenodd" xlink:href="#path-1"></use>
                    </g>
                </g>
            </g>
        </g>
    </g>
</svg>