<?xml version="1.0" encoding="UTF-8" standalone="no"?>
<svg width="128px" height="155px" viewBox="0 0 128 155" version="1.1" xmlns="http://www.w3.org/2000/svg" xmlns:xlink="http://www.w3.org/1999/xlink">
    <!-- Generator: Sketch 3.8.3 (29802) - http://www.bohemiancoding.com/sketch -->
    <title>Group 15</title>
    <desc>Created with Sketch.</desc>
    <defs>
        <linearGradient x1="101.999998%" y1="0%" x2="101.999998%" y2="100.999999%" id="linearGradient-1">
            <stop stop-color="#FFF460" offset="0%"></stop>
            <stop stop-color="#D5CA18" offset="100%"></stop>
        </linearGradient>
        <rect id="path-2" x="14.943609" y="28.755814" width="93.112782" height="96" rx="26"></rect>
        <filter x="-50%" y="-50%" width="200%" height="200%" filterUnits="objectBoundingBox" id="filter-3">
            <feOffset dx="0" dy="4" in="SourceAlpha" result="shadowOffsetOuter1"></feOffset>
            <feGaussianBlur stdDeviation="6" in="shadowOffsetOuter1" result="shadowBlurOuter1"></feGaussianBlur>
            <feColorMatrix values="0 0 0 0 0.659996811   0 0 0 0 0.224386937   0 0 0 0 0.544361921  0 0 0 0.128736413 0" type="matrix" in="shadowBlurOuter1"></feColorMatrix>
        </filter>
        <linearGradient x1="50%" y1="0%" x2="50%" y2="100%" id="linearGradient-4">
            <stop stop-color="#FFFFFF" offset="0%"></stop>
            <stop stop-color="#FFFFFF" stop-opacity="0.294865263" offset="100%"></stop>
        </linearGradient>
        <path d="M78,61 L48,61 C47.4,61 47,61.4 47,62 L47,92 C47,92.6 47.4,93 48,93 L78,93 C78.6,93 79,92.6 79,92 L79,62 C79,61.4 78.6,61 78,61 L78,61 Z M61,68 C62.7,68 64,69.3 64,71 C64,72.7 62.7,74 61,74 C59.3,74 58,72.7 58,71 C58,69.3 59.3,68 61,68 L61,68 Z M74,87 L74,87 L52,87 C51.6,87 51.3,86.8 51.1,86.5 C50.9,86.2 51,85.8 51.2,85.5 L56.2,78.5 C56.3,78.2 56.6,78 56.9,78 C57.2,78 57.4,78 57.7,78.2 L61.9,81.5 L66.3,75.4 C66.5,75.1 66.8,75 67.1,75 L67.1,75 C67.4,75 67.7,75.2 67.9,75.4 L74.8,85.3 C75,85.5 75.1,85.7 75.1,86 C75,86.6 74.6,87 74,87 L74,87 Z" id="path-5"></path>
        <filter x="-50%" y="-50%" width="200%" height="200%" filterUnits="objectBoundingBox" id="filter-6">
            <feOffset dx="0" dy="2" in="SourceAlpha" result="shadowOffsetOuter1"></feOffset>
            <feGaussianBlur stdDeviation="1" in="shadowOffsetOuter1" result="shadowBlurOuter1"></feGaussianBlur>
            <feColorMatrix values="0 0 0 0 0   0 0 0 0 0   0 0 0 0 0  0 0 0 0.3 0" type="matrix" in="shadowBlurOuter1"></feColorMatrix>
        </filter>
    </defs>
    <g id="website" stroke="none" stroke-width="1" fill="none" fill-rule="evenodd">
        <g id="播放器-SDK" transform="translate(-187.000000, -1887.000000)">
            <g id="Group-15" transform="translate(187.000000, 1887.000000)">
                <g id="media-64px-glyph-1_action-74" transform="translate(104.000000, 91.000000)" fill="#CDCFD2">
                    <path d="M23.6,7.25806452 L6.76,7.25806452 L22.92,4.91935484 C23.04,4.91935484 23.12,4.83870968 23.2,4.75806452 C23.28,4.67741935 23.28,4.55645161 23.28,4.47580645 L22.64,0.483870968 C22.6,0.282258065 22.4,0.120967742 22.2,0.161290323 L0.6,3.30645161 C0.4,3.34677419 0.24,3.5483871 0.28,3.75 L0.8,7.7016129 L0.8,11.6935484 L0.8,24.5967742 C0.8,24.8387097 0.96,25 1.2,25 L23.6,25 C23.84,25 24,24.8387097 24,24.5967742 L24,11.6935484 L24,7.66129032 C24,7.41935484 23.84,7.25806452 23.6,7.25806452 L23.6,7.25806452 Z M15.68,8.06451613 L13.76,11.2903226 L9.88,11.2903226 L11.8,8.06451613 L15.68,8.06451613 L15.68,8.06451613 Z M21.92,0.967741935 L22.44,4.19354839 L21.2,4.39516129 L18.8,1.41129032 L21.92,0.967741935 L21.92,0.967741935 Z M17.88,1.57258065 L20.24,4.51612903 L16.4,5.04032258 L14.04,2.09677419 L17.88,1.57258065 L17.88,1.57258065 Z M13.12,2.25806452 L15.48,5.2016129 L11.64,5.76612903 L9.28,2.82258065 L13.12,2.25806452 L13.12,2.25806452 Z M8.36,2.94354839 L10.72,5.84677419 L6.88,6.41129032 L4.52,3.50806452 L8.36,2.94354839 L8.36,2.94354839 Z M1.08,3.99193548 L3.64,3.62903226 L6,6.53225806 L1.52,7.21774194 L1.08,3.99193548 L1.08,3.99193548 Z M1.6,11.2903226 L1.6,8.06451613 L6.08,8.06451613 L4.16,11.2903226 L1.6,11.2903226 L1.6,11.2903226 Z M5.12,11.2903226 L7.04,8.06451613 L10.92,8.06451613 L9,11.2903226 L5.12,11.2903226 L5.12,11.2903226 Z M15.04,18.4677419 L10.24,21.6935484 C10.16,21.733871 10.08,21.7741935 10,21.7741935 C9.92,21.7741935 9.88,21.7741935 9.8,21.733871 C9.68,21.6532258 9.6,21.5322581 9.6,21.3709677 L9.6,14.9193548 C9.6,14.7580645 9.68,14.6370968 9.8,14.5564516 C9.92,14.4758065 10.08,14.4758065 10.2,14.5564516 L15,17.7822581 C15.12,17.8629032 15.16,17.983871 15.16,18.1048387 C15.16,18.2258065 15.12,18.3870968 15.04,18.4677419 L15.04,18.4677419 Z" id="Shape"></path>
                </g>
                <g id="files-64px-glyph_music" transform="translate(65.000000, 130.000000)" fill="#CDCFD2">
                    <g id="Group">
                        <path d="M15.2,0.241935484 L15.2,4.83870968 L19.76,4.83870968 L15.2,0.241935484 Z M14.8,5.64516129 C14.56,5.64516129 14.4,5.48387097 14.4,5.24193548 L14.4,0 L0.4,0 C0.16,0 0,0.161290323 0,0.403225806 L0,24.5967742 C0,24.8387097 0.16,25 0.4,25 L19.6,25 C19.84,25 20,24.8387097 20,24.5967742 L20,5.64516129 L14.8,5.64516129 Z M15.2,10.0806452 L15.2,15.7258065 C15.2,16.8548387 14.32,17.7419355 13.2,17.7419355 C12.08,17.7419355 11.2,16.8548387 11.2,15.7258065 C11.2,14.5967742 12.08,13.7096774 13.2,13.7096774 C13.64,13.7096774 14.08,13.8709677 14.4,14.1129032 L14.4,10.483871 L8,10.483871 L8,17.3387097 C8,18.4677419 7.12,19.3548387 6,19.3548387 C4.88,19.3548387 4,18.4677419 4,17.3387097 C4,16.2096774 4.88,15.3225806 6,15.3225806 C6.44,15.3225806 6.88,15.483871 7.2,15.7258065 L7.2,10.0806452 L7.2,7.66129032 C7.2,7.41935484 7.36,7.25806452 7.6,7.25806452 L14.8,7.25806452 C15.04,7.25806452 15.2,7.41935484 15.2,7.66129032 L15.2,10.0806452 Z" id="Combined-Shape"></path>
                    </g>
                </g>
                <g id="files-64px-glyph-3_mp3" transform="translate(80.000000, 0.000000)" fill="#CDCFD2">
                    <g id="Group">
                        <polygon id="Shape" points="16 0.64516129 16 6.0483871 21.36 6.0483871"></polygon>
                        <path d="M22,11.2903226 L22,6.85483871 L15.6,6.85483871 C15.36,6.85483871 15.2,6.69354839 15.2,6.4516129 L15.2,0 L2.4,0 C2.16,0 2,0.161290323 2,0.403225806 L2,11.2903226 L22,11.2903226 L22,11.2903226 Z" id="Shape"></path>
                        <path d="M2,22.1774194 L2,24.5967742 C2,24.8387097 2.16,25 2.4,25 L21.6,25 C21.84,25 22,24.8387097 22,24.5967742 L22,22.1774194 L2,22.1774194 L2,22.1774194 Z" id="Shape"></path>
                        <path d="M23.6,12.0967742 L0.4,12.0967742 C0.16,12.0967742 0,12.2580645 0,12.5 L0,20.9677419 C0,21.2096774 0.16,21.3709677 0.4,21.3709677 L23.6,21.3709677 C23.84,21.3709677 24,21.2096774 24,20.9677419 L24,12.5 C24,12.2580645 23.84,12.0967742 23.6,12.0967742 L23.6,12.0967742 Z M10.76,18.5483871 L10.04,18.5483871 L10.04,16.7741935 L10.04,16.4919355 C10.04,16.3709677 10.04,16.0887097 10.08,15.6048387 L10.04,15.6048387 L9.08,18.5483871 L8.36,18.5483871 L7.48,15.6048387 L7.44,15.6048387 C7.48,16.2096774 7.48,16.6129032 7.48,16.8145161 L7.48,18.5483871 L6.8,18.5483871 L6.8,14.7983871 L7.88,14.7983871 L8.76,17.6612903 L8.76,17.6612903 L9.68,14.7983871 L10.76,14.7983871 L10.76,18.5483871 L10.76,18.5483871 Z M14,16.8951613 C13.76,17.0967742 13.4,17.2177419 12.92,17.2177419 L12.6,17.2177419 L12.6,18.5483871 L11.8,18.5483871 L11.8,14.7983871 L13,14.7983871 C13.44,14.7983871 13.8,14.8790323 14.04,15.0806452 C14.28,15.2822581 14.4,15.5645161 14.4,15.9677419 C14.36,16.3709677 14.24,16.6935484 14,16.8951613 L14,16.8951613 Z M17.08,18.3064516 C16.84,18.5080645 16.44,18.5887097 15.96,18.5887097 C15.56,18.5887097 15.2,18.5080645 14.88,18.3870968 L14.88,17.7419355 C15.04,17.8225806 15.2,17.8629032 15.36,17.9032258 C15.52,17.9435484 15.72,17.983871 15.88,17.983871 C16.12,17.983871 16.32,17.9435484 16.44,17.8629032 C16.56,17.7822581 16.64,17.6209677 16.64,17.4193548 C16.64,17.2580645 16.56,17.1370968 16.44,17.0564516 C16.32,16.9758065 16.08,16.9354839 15.76,16.9354839 L15.48,16.9354839 L15.48,16.3306452 L15.76,16.3306452 C16.04,16.3306452 16.24,16.2903226 16.4,16.2096774 C16.52,16.1290323 16.6,16.0080645 16.6,15.8064516 C16.6,15.5241935 16.44,15.3629032 16.08,15.3629032 C15.96,15.3629032 15.84,15.4032258 15.72,15.4435484 C15.6,15.483871 15.44,15.5645161 15.28,15.6451613 L14.92,15.0806452 C15.24,14.8387097 15.68,14.7177419 16.12,14.7177419 C16.52,14.7177419 16.8,14.7983871 17.04,14.9596774 C17.28,15.1209677 17.36,15.3225806 17.36,15.6048387 C17.36,15.8467742 17.28,16.0483871 17.16,16.2096774 C17.04,16.3709677 16.8,16.5322581 16.56,16.5725806 L16.56,16.5725806 C16.84,16.6129032 17.08,16.6935484 17.24,16.8548387 C17.4,17.016129 17.48,17.1774194 17.48,17.4596774 C17.48,17.8225806 17.36,18.1048387 17.08,18.3064516 L17.08,18.3064516 Z" id="Shape"></path>
                        <path d="M12.96,15.4435484 L12.6,15.4435484 L12.6,16.5725806 L12.84,16.5725806 C13.08,16.5725806 13.28,16.5322581 13.4,16.4112903 C13.52,16.2903226 13.6,16.1693548 13.6,16.0080645 C13.6,15.8064516 13.56,15.6854839 13.44,15.6048387 C13.32,15.483871 13.16,15.4435484 12.96,15.4435484 L12.96,15.4435484 Z" id="Shape"></path>
                    </g>
                </g>
                <g id="media-64px-glyph-1_audio-91" transform="translate(0.000000, 104.000000)" fill="#CDCFD2">
                    <g id="Group">
                        <path d="M8.5,17.7419355 C11.4142857,17.7419355 13.7619048,15.4032258 13.7619048,12.5 L13.7619048,5.24193548 C13.7619048,2.33870968 11.4142857,0 8.5,0 C5.58571429,0 3.23809524,2.33870968 3.23809524,5.24193548 L3.23809524,12.5 C3.23809524,15.4032258 5.58571429,17.7419355 8.5,17.7419355 L8.5,17.7419355 Z" id="Shape"></path>
                        <path d="M16.5952381,8.87096774 C16.352381,8.87096774 16.1904762,9.03225806 16.1904762,9.27419355 L16.1904762,12.5 C16.1904762,16.733871 12.75,20.1612903 8.5,20.1612903 C4.25,20.1612903 0.80952381,16.733871 0.80952381,12.5 L0.80952381,9.27419355 C0.80952381,9.03225806 0.647619048,8.87096774 0.404761905,8.87096774 C0.161904762,8.87096774 0,9.03225806 0,9.27419355 L0,12.5 C0,17.016129 3.60238095,20.7258065 8.0952381,20.9274194 L8.0952381,24.1935484 L3.64285714,24.1935484 C3.4,24.1935484 3.23809524,24.3548387 3.23809524,24.5967742 C3.23809524,24.8387097 3.4,25 3.64285714,25 L13.3571429,25 C13.6,25 13.7619048,24.8387097 13.7619048,24.5967742 C13.7619048,24.3548387 13.6,24.1935484 13.3571429,24.1935484 L8.9047619,24.1935484 L8.9047619,20.9274194 C13.397619,20.7258065 17,17.016129 17,12.5 L17,9.27419355 C17,9.03225806 16.8380952,8.87096774 16.5952381,8.87096774 L16.5952381,8.87096774 Z" id="Shape"></path>
                    </g>
                </g>
                <g id="Group-14" transform="translate(1.000000, 16.000000)">
                    <g id="files-64px-glyph-2_aac">
                        <g id="Group">
                            <polygon id="Shape" fill="#CDCFD2" points="16 0.64516129 16 6.0483871 21.36 6.0483871"></polygon>
                            <path d="M22,11.2903226 L22,6.85483871 L15.6,6.85483871 C15.36,6.85483871 15.2,6.69354839 15.2,6.4516129 L15.2,0 L2.4,0 C2.16,0 2,0.161290323 2,0.403225806 L2,11.2903226 L22,11.2903226 L22,11.2903226 Z" id="Shape" fill="#CDCFD2"></path>
                            <path d="M2,22.1774194 L2,24.5967742 C2,24.8387097 2.16,25 2.4,25 L21.6,25 C21.84,25 22,24.8387097 22,24.5967742 L22,22.1774194 L2,22.1774194 L2,22.1774194 Z" id="Shape" fill="#CDCFD2"></path>
                            <path d="M12.12,15.3629032 C12.08,15.5645161 11.92,16.1290323 11.64,16.9758065 L12.6,16.9758065 C12.36,16.1693548 12.2,15.7258065 12.16,15.6048387 C12.16,15.5241935 12.16,15.4435484 12.12,15.3629032 L12.12,15.3629032 Z" id="Shape" fill="#343434"></path>
                            <path d="M23.6,12.0967742 L0.4,12.0967742 C0.16,12.0967742 0,12.2580645 0,12.5 L0,20.9677419 C0,21.2096774 0.16,21.3709677 0.4,21.3709677 L23.6,21.3709677 C23.84,21.3709677 24,21.2096774 24,20.9677419 L24,12.5 C24,12.2580645 23.84,12.0967742 23.6,12.0967742 L23.6,12.0967742 Z" id="Shape" fill="#CDCFD2"></path>
                            <path d="M8.44,15.3629032 C8.4,15.5645161 8.24,16.1290323 7.96,16.9758065 L8.92,16.9758065 C8.68,16.1693548 8.52,15.7258065 8.48,15.6048387 C8.48,15.5241935 8.48,15.4435484 8.44,15.3629032 L8.44,15.3629032 Z" id="Shape" fill="#343434"></path>
                        </g>
                    </g>
                    <text id="AAC" font-family=".AppleSystemUIFont" font-size="7" font-weight="normal" letter-spacing="0.0250000022" fill="#FFFFFF">
                        <tspan x="4.75" y="19.5">AAC</tspan>
                    </text>
                </g>
                <g id="Rectangle-295-Copy">
                    <use fill="black" fill-opacity="1" filter="url(#filter-3)" xlink:href="#path-2"></use>
                    <use fill="url(#linearGradient-1)" fill-rule="evenodd" xlink:href="#path-2"></use>
                </g>
                <g id="Shape">
                    <use fill="black" fill-opacity="1" filter="url(#filter-6)" xlink:href="#path-5"></use>
                    <use fill="url(#linearGradient-4)" fill-rule="evenodd" xlink:href="#path-5"></use>
                </g>
            </g>
        </g>
    </g>
</svg>