<?xml version="1.0" encoding="UTF-8" standalone="no"?>
<svg width="151px" height="141px" viewBox="0 0 151 141" version="1.1" xmlns="http://www.w3.org/2000/svg" xmlns:xlink="http://www.w3.org/1999/xlink">
    <!-- Generator: Sketch 3.8.3 (29802) - http://www.bohemiancoding.com/sketch -->
    <title>Group 16</title>
    <desc>Created with Sketch.</desc>
    <defs>
        <linearGradient x1="101.999998%" y1="0%" x2="101.999998%" y2="100.999999%" id="linearGradient-1">
            <stop stop-color="#60E4FF" offset="0%"></stop>
            <stop stop-color="#1865D5" offset="100%"></stop>
        </linearGradient>
        <rect id="path-2" x="33" y="20" width="98.4473684" height="101.5" rx="12"></rect>
        <filter x="-50%" y="-50%" width="200%" height="200%" filterUnits="objectBoundingBox" id="filter-3">
            <feOffset dx="0" dy="4" in="SourceAlpha" result="shadowOffsetOuter1"></feOffset>
            <feGaussianBlur stdDeviation="6" in="shadowOffsetOuter1" result="shadowBlurOuter1"></feGaussianBlur>
            <feColorMatrix values="0 0 0 0 0.659996811   0 0 0 0 0.224386937   0 0 0 0 0.544361921  0 0 0 0.128736413 0" type="matrix" in="shadowBlurOuter1"></feColorMatrix>
        </filter>
        <linearGradient x1="50%" y1="0%" x2="50%" y2="100%" id="linearGradient-4">
            <stop stop-color="#FFFFFF" offset="0%"></stop>
            <stop stop-color="#FFFFFF" stop-opacity="0.294865263" offset="100%"></stop>
        </linearGradient>
        <path d="M83.721359,79.8181818 L83.721359,61.2290909 L91.4390308,61.2290909 C92.2559957,61.2290909 93.0077659,61.399271 93.694364,61.7396364 C94.3809621,62.0800017 94.9719491,62.5338153 95.4673426,63.1010909 C95.9627362,63.6683665 96.349485,64.305451 96.6276007,65.0123636 C96.9057164,65.7192763 97.0447722,66.4392691 97.0447722,67.1723636 C97.0447722,67.9403675 96.9144074,68.6821782 96.6536739,69.3978182 C96.3929405,70.1134581 96.0235736,70.7505427 95.5455623,71.3090909 C95.0675509,71.8676392 94.4939459,72.3127256 93.82473,72.6443636 C93.1555142,72.9760017 92.4124349,73.1418182 91.5954701,73.1418182 L86.0679484,73.1418182 L86.0679484,79.8181818 L83.721359,79.8181818 Z M86.0679484,71.0472727 L91.465104,71.0472727 C91.9518065,71.0472727 92.3907012,70.9469101 92.7818014,70.7461818 C93.1729016,70.5454535 93.5075045,70.2661836 93.7856202,69.9083636 C94.0637359,69.5505437 94.2810105,69.1360024 94.4374506,68.6647273 C94.5938907,68.1934522 94.6721096,67.6960026 94.6721096,67.1723636 C94.6721096,66.63127 94.5808542,66.1250933 94.3983408,65.6538182 C94.2158274,65.1825431 93.9724798,64.7723654 93.6682907,64.4232727 C93.3641017,64.0741801 93.0077713,63.8036373 92.5992889,63.6116364 C92.1908065,63.4196354 91.7606027,63.3236364 91.3086647,63.3236364 L86.0679484,63.3236364 L86.0679484,71.0472727 Z M99.8172241,79.8181818 L99.8172241,66.1512727 L102.111667,66.1512727 L102.111667,79.8181818 L99.8172241,79.8181818 Z M99.8172241,63.5854545 L99.8172241,60.7054545 L102.111667,60.7054545 L102.111667,63.5854545 L99.8172241,63.5854545 Z M106.083487,60.7054545 L108.37793,60.7054545 L108.37793,76.2836364 C108.37793,76.7898207 108.51264,77.1869077 108.782065,77.4749091 C109.051489,77.7629105 109.429547,77.9069091 109.91625,77.9069091 C110.107454,77.9069091 110.33342,77.8763639 110.594153,77.8152727 C110.854887,77.7541815 111.098234,77.6800004 111.324203,77.5927273 L111.689228,79.4516364 C111.306819,79.6087281 110.854888,79.7396358 110.333421,79.8443636 C109.811954,79.9490914 109.351332,80.0014545 108.951541,80.0014545 C108.065047,80.0014545 107.365423,79.7483662 106.852647,79.2421818 C106.339871,78.7359975 106.083487,78.0290954 106.083487,77.1214545 L106.083487,60.7054545 Z M113.705557,79.8181818 L113.705557,66.1512727 L116,66.1512727 L116,79.8181818 L113.705557,79.8181818 Z M113.705557,63.5854545 L113.705557,60.7054545 L116,60.7054545 L116,63.5854545 L113.705557,63.5854545 Z M50,62.3740632 C50,59.9583348 51.9558739,58 54.3559195,58 L69.5445282,58 C71.9502361,58 73.9004477,59.9640207 73.9004477,62.3740632 L73.9004477,77.6259368 C73.9004477,80.0416652 71.9445738,82 69.5445282,82 L54.3559195,82 C51.9502116,82 50,80.0359793 50,77.6259368 L50,62.3740632 Z M52.172768,62.3740632 L52.172768,77.6259368 C52.172768,78.8333963 53.1525888,79.8181818 54.3559195,79.8181818 L69.5445282,79.8181818 C70.7469791,79.8181818 71.7276797,78.8342797 71.7276797,77.6259368 L71.7276797,62.3740632 C71.7276797,61.1666037 70.7478589,60.1818182 69.5445282,60.1818182 L54.3559195,60.1818182 C53.1534686,60.1818182 52.172768,61.1657203 52.172768,62.3740632 Z M55.960134,69.2082679 C55.960134,68.4619573 56.4795047,68.1679393 57.1204336,68.5517118 L62.0215878,71.486402 C62.6624035,71.8701067 62.6625167,72.4921472 62.0215878,72.8759196 L57.1204336,75.8106099 C56.4796178,76.1943146 55.960134,75.910928 55.960134,75.1540537 L55.960134,69.2082679 Z" id="path-5"></path>
        <filter x="-50%" y="-50%" width="200%" height="200%" filterUnits="objectBoundingBox" id="filter-6">
            <feOffset dx="0" dy="2" in="SourceAlpha" result="shadowOffsetOuter1"></feOffset>
            <feGaussianBlur stdDeviation="1" in="shadowOffsetOuter1" result="shadowBlurOuter1"></feGaussianBlur>
            <feColorMatrix values="0 0 0 0 0   0 0 0 0 0   0 0 0 0 0  0 0 0 0.3 0" type="matrix" in="shadowBlurOuter1"></feColorMatrix>
        </filter>
    </defs>
    <g id="website" stroke="none" stroke-width="1" fill="none" fill-rule="evenodd">
        <g id="播放器-SDK" transform="translate(-689.000000, -2402.000000)">
            <g id="Group-16" transform="translate(689.000000, 2402.000000)">
                <g id="design-64px-glyph-2_group" transform="translate(15.000000, 110.000000)" fill="#CDCFD2">
                    <g id="Group">
                        <path d="M30.5,6 C30.7765,6 31,5.7765 31,5.5 L31,0.5 C31,0.2235 30.7765,0 30.5,0 L25.5,0 C25.2235,0 25,0.2235 25,0.5 L25,2.5 L6,2.5 L6,0.5 C6,0.2235 5.7765,0 5.5,0 L0.5,0 C0.2235,0 0,0.2235 0,0.5 L0,5.5 C0,5.7765 0.2235,6 0.5,6 L2.5,6 L2.5,25 L0.5,25 C0.2235,25 0,25.2235 0,25.5 L0,30.5 C0,30.7765 0.2235,31 0.5,31 L5.5,31 C5.7765,31 6,30.7765 6,30.5 L6,28.5 L25,28.5 L25,30.5 C25,30.7765 25.2235,31 25.5,31 L30.5,31 C30.7765,31 31,30.7765 31,30.5 L31,25.5 C31,25.2235 30.7765,25 30.5,25 L28.5,25 L28.5,6 L30.5,6 L30.5,6 Z M27.5,25 L25.5,25 C25.2235,25 25,25.2235 25,25.5 L25,27.5 L6,27.5 L6,25.5 C6,25.2235 5.7765,25 5.5,25 L3.5,25 L3.5,6 L5.5,6 C5.7765,6 6,5.7765 6,5.5 L6,3.5 L25,3.5 L25,5.5 C25,5.7765 25.2235,6 25.5,6 L27.5,6 L27.5,25 L27.5,25 Z" id="Shape"></path>
                        <path d="M17.5,18 L9.5,18 C9.224,18 9,17.776 9,17.5 L9,9.5 C9,9.224 9.224,9 9.5,9 L17.5,9 C17.776,9 18,9.224 18,9.5 L18,17.5 C18,17.776 17.776,18 17.5,18 L17.5,18 Z" id="Shape"></path>
                        <path d="M21.5,13 L19,13 L19,19 L13,19 L13,21.5 C13,21.776 13.224,22 13.5,22 L21.5,22 C21.776,22 22,21.776 22,21.5 L22,13.5 C22,13.224 21.776,13 21.5,13 L21.5,13 Z" id="Shape"></path>
                    </g>
                </g>
                <g id="design-64px-glyph_vector" transform="translate(120.000000, 112.000000)" fill="#CDCFD2">
                    <g id="Group">
                        <path d="M28,0.5 C26.5165,0.5 25.284,1.5835 25.045,3 L19,3 L19,0.5 C19,0.224 18.776,0 18.5,0 L12.5,0 C12.224,0 12,0.224 12,0.5 L12,3 L5.955,3 C5.716,1.5835 4.4835,0.5 3,0.5 C1.3455,0.5 0,1.8455 0,3.5 C0,5.1545 1.3455,6.5 3,6.5 C4.4835,6.5 5.7155,5.4165 5.955,4 L12,4 L12,6.5 C12,6.776 12.224,7 12.5,7 L18.5,7 C18.776,7 19,6.776 19,6.5 L19,4 L25.045,4 C25.284,5.4165 26.5165,6.5 28,6.5 C29.6545,6.5 31,5.1545 31,3.5 C31,1.8455 29.6545,0.5 28,0.5 L28,0.5 Z" id="Shape"></path>
                        <path d="M4,16.5 L4,17 L1.5,17 C1.224,17 1,17.224 1,17.5 L1,23.5 C1,23.776 1.224,24 1.5,24 L7.5,24 C7.776,24 8,23.776 8,23.5 L8,17.5 C8,17.224 7.776,17 7.5,17 L5,17 L5,16.5 C5,12.418 7.399,8.735 11,7.0195 L11,5.925 C6.8195,7.709 4,11.87 4,16.5 L4,16.5 Z" id="Shape"></path>
                        <path d="M27,16.5 L27,17 L29.5,17 C29.776,17 30,17.224 30,17.5 L30,23.5 C30,23.776 29.776,24 29.5,24 L23.5,24 C23.224,24 23,23.776 23,23.5 L23,17.5 C23,17.224 23.224,17 23.5,17 L26,17 L26,16.5 C26,12.418 23.601,8.735 20,7.0195 L20,5.925 C24.1805,7.709 27,11.87 27,16.5 L27,16.5 Z" id="Shape"></path>
                    </g>
                </g>
                <g id="design-64px-glyph-2_ungroup" transform="translate(110.000000, 0.000000)" fill="#CDCFD2">
                    <g id="Group">
                        <path d="M30.5,13 C30.7765,13 31,12.7765 31,12.5 L31,8.5 C31,8.2235 30.7765,8 30.5,8 L26.5,8 C26.2235,8 26,8.2235 26,8.5 L26,10 L20.5,10 C20.2235,10 20,10.2235 20,10.5 C20,10.7765 20.2235,11 20.5,11 L26,11 L26,12.5 C26,12.7765 26.2235,13 26.5,13 L28,13 L28,26 L26.5,26 C26.2235,26 26,26.2235 26,26.5 L26,28 L13,28 L13,26.5 C13,26.2235 12.7765,26 12.5,26 L11,26 L11,20.5 C11,20.2235 10.7765,20 10.5,20 C10.2235,20 10,20.2235 10,20.5 L10,26 L8.5,26 C8.2235,26 8,26.2235 8,26.5 L8,30.5 C8,30.7765 8.2235,31 8.5,31 L12.5,31 C12.7765,31 13,30.7765 13,30.5 L13,29 L26,29 L26,30.5 C26,30.7765 26.2235,31 26.5,31 L30.5,31 C30.7765,31 31,30.7765 31,30.5 L31,26.5 C31,26.2235 30.7765,26 30.5,26 L29,26 L29,13 L30.5,13 L30.5,13 Z" id="Shape"></path>
                        <path d="M22.5,5 C22.7765,5 23,4.7765 23,4.5 L23,0.5 C23,0.2235 22.7765,0 22.5,0 L18.5,0 C18.2235,0 18,0.2235 18,0.5 L18,2 L5,2 L5,0.5 C5,0.2235 4.7765,0 4.5,0 L0.5,0 C0.2235,0 0,0.2235 0,0.5 L0,4.5 C0,4.7765 0.2235,5 0.5,5 L2,5 L2,18 L0.5,18 C0.2235,18 0,18.2235 0,18.5 L0,22.5 C0,22.7765 0.2235,23 0.5,23 L4.5,23 C4.7765,23 5,22.7765 5,22.5 L5,21 L18,21 L18,22.5 C18,22.7765 18.2235,23 18.5,23 L22.5,23 C22.7765,23 23,22.7765 23,22.5 L23,18.5 C23,18.2235 22.7765,18 22.5,18 L21,18 L21,5 L22.5,5 L22.5,5 Z M20,18 L18.5,18 C18.2235,18 18,18.2235 18,18.5 L18,20 L5,20 L5,18.5 C5,18.2235 4.7765,18 4.5,18 L3,18 L3,5 L4.5,5 C4.7765,5 5,4.7765 5,4.5 L5,3 L18,3 L18,4.5 C18,4.7765 18.2235,5 18.5,5 L20,5 L20,18 L20,18 Z" id="Shape"></path>
                    </g>
                </g>
                <g id="design-64px-glyph_design" transform="translate(0.000000, 20.000000)" fill="#CDCFD2">
                    <g id="Group">
                        <path d="M28.5305,22.6715 L23.1665,28.0355 L28.9125,28.993 C28.9405,28.998 28.9675,29 28.995,29 L29.005,29 C29.281,29 29.505,28.776 29.505,28.5 C29.505,28.437 29.4935,28.3765 29.472,28.3215 L28.5305,22.6715 L28.5305,22.6715 Z" id="Shape"></path>
                        <path d="M8.995,2.793 L6.3485,0.1465 C6.153,-0.049 5.837,-0.049 5.6415,0.1465 L0.6415,5.1465 C0.446,5.342 0.446,5.658 0.6415,5.8535 L3.288,8.5 L8.995,2.793 L8.995,2.793 Z" id="Shape"></path>
                        <path d="M29.3535,6.1465 L23.3535,0.1465 C23.158,-0.049 22.842,-0.049 22.6465,0.1465 L18,4.793 L19.8535,6.6465 C20.049,6.842 20.049,7.158 19.8535,7.3535 C19.658,7.549 19.342,7.549 19.1465,7.3535 L17.293,5.5 L15,7.793 L15.8535,8.6465 C16.049,8.842 16.049,9.158 15.8535,9.3535 C15.658,9.549 15.342,9.549 15.1465,9.3535 L14.293,8.5 L12,10.793 L13.8535,12.6465 C14.049,12.842 14.049,13.158 13.8535,13.3535 C13.658,13.549 13.342,13.549 13.1465,13.3535 L11.293,11.5 L9,13.793 L9.8535,14.6465 C10.049,14.842 10.049,15.158 9.8535,15.3535 C9.658,15.549 9.342,15.549 9.1465,15.3535 L8.293,14.5 L6,16.793 L7.8535,18.6465 C8.049,18.842 8.049,19.158 7.8535,19.3535 C7.658,19.549 7.342,19.549 7.1465,19.3535 L5.293,17.5 L0.6465,22.1465 C0.451,22.342 0.451,22.658 0.6465,22.8535 L6.6465,28.8535 C6.744,28.951 6.872,29 7,29 C7.128,29 7.256,28.951 7.3535,28.8535 L29.3535,6.8535 C29.549,6.658 29.549,6.342 29.3535,6.1465 L29.3535,6.1465 Z M24.25,8.5 C23.561,8.5 23,7.939 23,7.25 C23,6.561 23.561,6 24.25,6 C24.939,6 25.5,6.561 25.5,7.25 C25.5,7.939 24.939,8.5 24.25,8.5 L24.25,8.5 Z" id="Shape"></path>
                        <rect id="Rectangle-path" transform="translate(22.099629, 21.604609) rotate(-45.000000) translate(-22.099629, -21.604609) " x="18.0641674" y="17.3029" width="8.0709226" height="8.60341749"></rect>
                        <rect id="Rectangle-path" transform="translate(8.892966, 8.397735) rotate(-45.000000) translate(-8.892966, -8.397735) " x="4.8575048" y="5.50676322" width="8.0709226" height="5.78194455"></rect>
                    </g>
                </g>
                <g id="Rectangle-295">
                    <use fill="black" fill-opacity="1" filter="url(#filter-3)" xlink:href="#path-2"></use>
                    <use fill="url(#linearGradient-1)" fill-rule="evenodd" xlink:href="#path-2"></use>
                </g>
                <g id="Combined-Shape">
                    <use fill="black" fill-opacity="1" filter="url(#filter-6)" xlink:href="#path-5"></use>
                    <use fill="url(#linearGradient-4)" fill-rule="evenodd" xlink:href="#path-5"></use>
                </g>
            </g>
        </g>
    </g>
</svg>