<?xml version="1.0" encoding="UTF-8" standalone="no"?>
<svg width="62px" height="62px" viewBox="0 0 62 62" version="1.1" xmlns="http://www.w3.org/2000/svg" xmlns:xlink="http://www.w3.org/1999/xlink">
    <!-- Generator: Sketch 3.8.3 (29802) - http://www.bohemiancoding.com/sketch -->
    <title>Group 18 Copy</title>
    <desc>Created with Sketch.</desc>
    <defs>
        <path d="M26.3003354,1.9223301 C26.1226304,1.80582524 25.915308,1.80582524 25.7079855,1.89320388 L20.3472189,4.63106796 L20.3472189,2.70873786 C20.3472189,1.22330097 19.1032841,0 17.5927919,0 L2.75442702,0 C1.24393478,0 0,1.22330097 0,2.70873786 L0,13.1650485 C0,14.6504854 1.24393478,15.8737864 2.75442702,15.8737864 L6.10120393,15.8737864 L4.41300673,23.2718447 C4.35377174,23.592233 4.5314767,23.8834951 4.85726915,23.9708738 L4.97573913,23.9708738 C5.24229658,23.9708738 5.47923654,23.7961165 5.53847153,23.5048544 L7.28590372,15.8737864 L9.44798084,15.8737864 L9.44798084,23.3883495 C9.44798084,23.7087379 9.7145383,23.9708738 10.0403307,23.9708738 C10.3661232,23.9708738 10.6326806,23.7087379 10.6326806,23.3883495 L10.6326806,15.9029126 L12.7651403,15.9029126 L14.5125725,23.5339806 C14.5718074,23.7961165 14.8087474,24 15.0753049,24 L15.1937748,24 C15.5195673,23.9417476 15.7268897,23.6213592 15.6380373,23.3009709 L13.9498401,15.9320388 L17.5631744,15.9320388 C19.0736667,15.9320388 20.3176014,14.7087379 20.3176014,13.223301 L20.3176014,11.3009709 L25.678368,14.038835 C25.856073,14.1262136 26.0930129,14.1262136 26.2707179,14.0097087 C26.4484229,13.8932039 26.5668928,13.7184466 26.5668928,13.5145631 L26.5668928,2.44660194 C26.5965103,2.21359223 26.4780404,2.03883495 26.3003354,1.9223301 L26.3003354,1.9223301 Z M25.4118105,12.5242718 L20.051044,9.78640777 C19.873339,9.69902913 19.6363991,9.69902913 19.4586941,9.81553398 C19.2809891,9.93203883 19.1625191,10.1067961 19.1625191,10.3106796 L19.1625191,13.1941748 C19.1625191,14.038835 18.4516993,14.7378641 17.5927919,14.7378641 L2.75442702,14.7378641 C1.89551967,14.7378641 1.18469979,14.038835 1.18469979,13.1941748 L1.18469979,2.73786408 C1.18469979,1.89320388 1.89551967,1.19417476 2.75442702,1.19417476 L17.5927919,1.19417476 C18.4516993,1.19417476 19.1625191,1.89320388 19.1625191,2.73786408 L19.1625191,5.62135922 C19.1625191,5.82524272 19.2809891,6 19.4586941,6.11650485 C19.6363991,6.23300971 19.8437215,6.23300971 20.051044,6.14563107 L25.4118105,3.40776699 L25.4118105,12.5242718 L25.4118105,12.5242718 Z" id="path-1"></path>
        <mask id="mask-2" maskContentUnits="userSpaceOnUse" maskUnits="objectBoundingBox" x="0" y="0" width="26.5714286" height="24" fill="white">
            <use xlink:href="#path-1"></use>
        </mask>
        <ellipse id="path-3" cx="10.4543326" cy="8.14285714" rx="3.04918033" ry="3"></ellipse>
        <mask id="mask-4" maskContentUnits="userSpaceOnUse" maskUnits="objectBoundingBox" x="0" y="0" width="6.09836066" height="6" fill="white">
            <use xlink:href="#path-3"></use>
        </mask>
        <path d="M24,48 C37.254834,48 48,37.254834 48,24 C48,10.745166 37.254834,0 24,0 C10.745166,0 0,10.745166 0,24 C0,37.254834 10.745166,48 24,48 Z" id="path-5"></path>
        <filter x="-50%" y="-50%" width="200%" height="200%" filterUnits="objectBoundingBox" id="filter-6">
            <feMorphology radius="0.5" operator="dilate" in="SourceAlpha" result="shadowSpreadOuter1"></feMorphology>
            <feOffset dx="0" dy="4" in="shadowSpreadOuter1" result="shadowOffsetOuter1"></feOffset>
            <feGaussianBlur stdDeviation="3" in="shadowOffsetOuter1" result="shadowBlurOuter1"></feGaussianBlur>
            <feComposite in="shadowBlurOuter1" in2="SourceAlpha" operator="out" result="shadowBlurOuter1"></feComposite>
            <feColorMatrix values="0 0 0 0 0.380392   0 0 0 0 0.6   0 0 0 0 0.709804  0 0 0 0.1 0" type="matrix" in="shadowBlurOuter1"></feColorMatrix>
        </filter>
    </defs>
    <g id="website" stroke="none" stroke-width="1" fill="none" fill-rule="evenodd">
        <g id="Group-18-Copy" transform="translate(7.000000, 3.000000)">
            <g id="222" transform="translate(12.000000, 13.714286)" stroke="#3FC3A2" stroke-width="2">
                <use id="Shape" mask="url(#mask-2)" xlink:href="#path-1"></use>
                <use id="Oval-67" mask="url(#mask-4)" xlink:href="#path-3"></use>
            </g>
            <g id="Oval-26" style="mix-blend-mode: multiply;">
                <use fill="black" fill-opacity="1" filter="url(#filter-6)" xlink:href="#path-5"></use>
                <use stroke="#3FC3A2" stroke-width="1" fill-opacity="0" fill="#199FFC" fill-rule="evenodd" xlink:href="#path-5"></use>
            </g>
        </g>
    </g>
</svg>