<?xml version="1.0" encoding="UTF-8" standalone="no"?>
<svg width="60px" height="60px" viewBox="0 0 60 60" version="1.1" xmlns="http://www.w3.org/2000/svg" xmlns:xlink="http://www.w3.org/1999/xlink">
    <!-- Generator: Sketch 3.8.3 (29802) - http://www.bohemiancoding.com/sketch -->
    <title>Group 17</title>
    <desc>Created with Sketch.</desc>
    <defs>
        <path d="M12.4285714,17.5714286 C14.5714286,17.5714286 16.2857143,15.8571429 16.2857143,13.7142857 C16.2857143,11.5714286 14.5714286,9.85714286 12.4285714,9.85714286 C10.2857143,9.85714286 8.57142857,11.5714286 8.57142857,13.7142857 C8.57142857,15.8571429 10.2857143,17.5714286 12.4285714,17.5714286 L12.4285714,17.5714286 Z M12.4285714,10.7142857 C14.1,10.7142857 15.4285714,12.0428571 15.4285714,13.7142857 C15.4285714,15.3857143 14.1,16.7142857 12.4285714,16.7142857 C10.7571429,16.7142857 9.42857143,15.3857143 9.42857143,13.7142857 C9.42857143,12.0428571 10.7571429,10.7142857 12.4285714,10.7142857 L12.4285714,10.7142857 Z" id="path-1"></path>
        <mask id="mask-2" maskContentUnits="userSpaceOnUse" maskUnits="objectBoundingBox" x="0" y="0" width="7.71428571" height="7.71428571" fill="white">
            <use xlink:href="#path-1"></use>
        </mask>
        <path d="M11.3571429,15.7928571 C11.4428571,15.8357143 11.4857143,15.8357143 11.5714286,15.8357143 C11.6571429,15.8357143 11.7428571,15.7928571 11.8285714,15.75 L14.4,14.0357143 C14.5285714,13.95 14.5714286,13.8214286 14.5714286,13.6928571 C14.5714286,13.5642857 14.4857143,13.4357143 14.4,13.35 L11.8285714,11.6357143 C11.7,11.55 11.5285714,11.55 11.4,11.6357143 C11.2285714,11.6785714 11.1428571,11.8071429 11.1428571,11.9785714 L11.1428571,15.4071429 C11.1428571,15.5785714 11.2285714,15.7071429 11.3571429,15.7928571 L11.3571429,15.7928571 Z M12,12.7928571 L13.3714286,13.6928571 L12,14.5928571 L12,12.7928571 L12,12.7928571 Z" id="path-3"></path>
        <mask id="mask-4" maskContentUnits="userSpaceOnUse" maskUnits="objectBoundingBox" x="0" y="0" width="3.42857143" height="4.26428571" fill="white">
            <use xlink:href="#path-3"></use>
        </mask>
        <path d="M18.6428571,15.8357143 C18.7285714,15.8785714 18.7714286,15.8785714 18.8571429,15.8785714 C18.9428571,15.8785714 19.0285714,15.8357143 19.1142857,15.7928571 L21,14.5071429 L21,15.45 C21,15.7071429 21.1714286,15.8785714 21.4285714,15.8785714 C21.6857143,15.8785714 21.8571429,15.7071429 21.8571429,15.45 L21.8571429,12.0214286 C21.8571429,11.7642857 21.6857143,11.5928571 21.4285714,11.5928571 C21.1714286,11.5928571 21,11.7642857 21,12.0214286 L21,12.9214286 L19.1142857,11.6357143 C18.9857143,11.55 18.8142857,11.55 18.6857143,11.6357143 C18.5142857,11.7214286 18.4285714,11.85 18.4285714,12.0214286 L18.4285714,15.45 C18.4285714,15.6214286 18.5142857,15.75 18.6428571,15.8357143 L18.6428571,15.8357143 Z M19.2857143,12.8357143 L20.6571429,13.7357143 L19.2857143,14.6357143 L19.2857143,12.8357143 L19.2857143,12.8357143 Z" id="path-5"></path>
        <mask id="mask-6" maskContentUnits="userSpaceOnUse" maskUnits="objectBoundingBox" x="0" y="0" width="3.42857143" height="4.30714286" fill="white">
            <use xlink:href="#path-5"></use>
        </mask>
        <path d="M24.4285714,8.14285714 L20.1428571,8.14285714 L20.1428571,2.57142857 C20.1428571,1.15714286 18.9857143,0 17.5714286,0 L7.28571429,0 C5.87142857,0 4.71428571,1.15714286 4.71428571,2.57142857 L4.71428571,8.14285714 L0.428571429,8.14285714 C0.171428571,8.14285714 -2.27373675e-13,8.31428571 -2.27373675e-13,8.57142857 L-2.27373675e-13,18.8571429 C-2.27373675e-13,19.1142857 0.171428571,19.2857143 0.428571429,19.2857143 L4.71428571,19.2857143 L4.71428571,24.8571429 C4.71428571,26.2714286 5.87142857,27.4285714 7.28571429,27.4285714 L17.5714286,27.4285714 C18.9857143,27.4285714 20.1428571,26.2714286 20.1428571,24.8571429 L20.1428571,19.2857143 L24.4285714,19.2857143 C24.6857143,19.2857143 24.8571429,19.1142857 24.8571429,18.8571429 L24.8571429,8.57142857 C24.8571429,8.31428571 24.6857143,8.14285714 24.4285714,8.14285714 L24.4285714,8.14285714 Z M5.57142857,2.57142857 C5.57142857,1.62857143 6.34285714,0.857142857 7.28571429,0.857142857 L17.5714286,0.857142857 C18.5142857,0.857142857 19.2857143,1.62857143 19.2857143,2.57142857 L19.2857143,3.42857143 L5.57142857,3.42857143 L5.57142857,2.57142857 L5.57142857,2.57142857 Z M5.57142857,4.28571429 L19.2857143,4.28571429 L19.2857143,8.14285714 L5.57142857,8.14285714 L5.57142857,4.28571429 L5.57142857,4.28571429 Z M19.2857143,24.8571429 C19.2857143,25.8 18.5142857,26.5714286 17.5714286,26.5714286 L7.28571429,26.5714286 C6.34285714,26.5714286 5.57142857,25.8 5.57142857,24.8571429 L5.57142857,24 L19.2857143,24 L19.2857143,24.8571429 L19.2857143,24.8571429 Z M19.2857143,23.1428571 L5.57142857,23.1428571 L5.57142857,19.2857143 L19.2857143,19.2857143 L19.2857143,23.1428571 L19.2857143,23.1428571 Z M24,18.4285714 L0.857142857,18.4285714 L0.857142857,9 L24,9 L24,18.4285714 L24,18.4285714 Z" id="path-7"></path>
        <mask id="mask-8" maskContentUnits="userSpaceOnUse" maskUnits="objectBoundingBox" x="0" y="0" width="24.8571429" height="27.4285714" fill="white">
            <use xlink:href="#path-7"></use>
        </mask>
        <path d="M3.39227759,15.8571429 C3.64942044,15.8571429 3.82084902,15.6857143 3.82084902,15.4285714 L3.82084902,14.5285714 L5.7065633,15.8142857 C5.79227759,15.8571429 5.87799187,15.9 5.96370616,15.9 C6.04942044,15.9 6.09227759,15.9 6.17799187,15.8571429 C6.3065633,15.7714286 6.39227759,15.6428571 6.39227759,15.4714286 L6.39227759,12.0428571 C6.39227759,11.8714286 6.3065633,11.7428571 6.17799187,11.6571429 C6.04942044,11.5714286 5.87799187,11.5714286 5.74942044,11.6571429 L3.86370616,12.9428571 L3.86370616,12 C3.86370616,11.7428571 3.69227759,11.5714286 3.43513473,11.5714286 C3.17799187,11.5714286 3.0065633,11.7428571 3.0065633,12 L3.0065633,15.4285714 C2.96370616,15.6857143 3.13513473,15.8571429 3.39227759,15.8571429 L3.39227759,15.8571429 Z M5.53513473,12.8142857 L5.53513473,14.6571429 L4.16370616,13.7142857 L5.53513473,12.8142857 L5.53513473,12.8142857 Z" id="path-9"></path>
        <mask id="mask-10" maskContentUnits="userSpaceOnUse" maskUnits="objectBoundingBox" x="0" y="0" width="3.39227759" height="4.32857143" fill="white">
            <use xlink:href="#path-9"></use>
        </mask>
        <ellipse id="path-11" cx="24" cy="24" rx="24" ry="24"></ellipse>
        <filter x="-50%" y="-50%" width="200%" height="200%" filterUnits="objectBoundingBox" id="filter-12">
            <feOffset dx="0" dy="4" in="SourceAlpha" result="shadowOffsetOuter1"></feOffset>
            <feMorphology radius="1" operator="erode" in="SourceAlpha" result="shadowInner"></feMorphology>
            <feOffset dx="0" dy="4" in="shadowInner" result="shadowInner"></feOffset>
            <feComposite in="shadowOffsetOuter1" in2="shadowInner" operator="out" result="shadowOffsetOuter1"></feComposite>
            <feGaussianBlur stdDeviation="3" in="shadowOffsetOuter1" result="shadowBlurOuter1"></feGaussianBlur>
            <feColorMatrix values="0 0 0 0 0.380392   0 0 0 0 0.6   0 0 0 0 0.709804  0 0 0 0.1 0" type="matrix" in="shadowBlurOuter1"></feColorMatrix>
        </filter>
        <mask id="mask-13" maskContentUnits="userSpaceOnUse" maskUnits="objectBoundingBox" x="0" y="0" width="48" height="48" fill="white">
            <use xlink:href="#path-11"></use>
        </mask>
    </defs>
    <g id="website" stroke="none" stroke-width="1" fill="none" fill-rule="evenodd">
        <g id="播放器-SDK" transform="translate(-113.000000, -161.000000)">
            <g id="Group-17" transform="translate(119.000000, 163.000000)">
                <g id="111" transform="translate(11.142857, 10.285714)" stroke="#FFFFFF" stroke-width="1.71428571">
                    <use id="Shape" mask="url(#mask-2)" xlink:href="#path-1"></use>
                    <use id="Shape" mask="url(#mask-4)" xlink:href="#path-3"></use>
                    <use id="Shape" mask="url(#mask-6)" xlink:href="#path-5"></use>
                    <use id="Shape" mask="url(#mask-8)" xlink:href="#path-7"></use>
                    <use id="Shape" mask="url(#mask-10)" xlink:href="#path-9"></use>
                </g>
                <g id="Monitoring">
                    <g id="Oval-26">
                        <use fill="black" fill-opacity="1" filter="url(#filter-12)" xlink:href="#path-11"></use>
                        <use stroke="#FFFFFF" mask="url(#mask-13)" stroke-width="1.71428571" xlink:href="#path-11"></use>
                    </g>
                </g>
            </g>
        </g>
    </g>
</svg>